<svg width="345" height="116" viewBox="0 0 345 116" fill="none" xmlns="http://www.w3.org/2000/svg">
<path d="M4.8 90.584V32.984C4.8 31.384 5.184 30.136 5.952 29.24C6.784 28.28 7.84 27.8 9.12 27.8H25.152C35.328 27.8 43.04 30.36 48.288 35.48C53.6 40.6 56.256 48.664 56.256 59.672C56.256 83.224 46.208 95 26.112 95H9.696C6.432 95 4.8 93.528 4.8 90.584ZM23.232 46.04V74.744C23.232 76.088 23.328 76.952 23.52 77.336C23.712 77.656 24.288 77.816 25.248 77.816C28.768 77.816 31.424 76.504 33.216 73.88C35.072 71.256 36 66.904 36 60.824C36 54.68 35.04 50.68 33.12 48.824C31.264 46.968 28.288 46.04 24.192 46.04H23.232ZM99.7643 92.408C95.7323 94.776 90.5483 95.96 84.2123 95.96C77.8763 95.96 72.5323 93.816 68.1803 89.528C63.8283 85.176 61.6523 79.192 61.6523 71.576C61.6523 63.896 63.7323 57.72 67.8923 53.048C72.1163 48.376 77.4283 46.04 83.8282 46.04C90.2283 46.04 95.1563 47.672 98.6123 50.936C102.132 54.2 103.892 58.168 103.892 62.84C103.892 73.208 97.9403 78.392 86.0363 78.392H79.4123C79.4123 80.312 79.9243 81.656 80.9483 82.424C82.0363 83.128 83.6043 83.48 85.6523 83.48C90.1323 83.48 94.3883 82.456 98.4203 80.408C98.4843 80.344 98.7723 80.792 99.2843 81.752C100.82 84.504 101.588 86.84 101.588 88.76C101.588 90.616 100.98 91.832 99.7643 92.408ZM87.7643 64.664C87.7643 61.976 86.4523 60.632 83.8282 60.632C82.6123 60.632 81.5563 61.016 80.6603 61.784C79.8283 62.488 79.4123 63.544 79.4123 64.952V67.928H84.5963C86.7083 67.928 87.7643 66.84 87.7643 64.664ZM127.636 94.232C127.636 94.808 124.372 95.096 117.844 95.096C112.724 95.032 110.164 94.776 110.164 94.328V28.952C110.164 27.992 113.268 27.512 119.476 27.512C124.916 27.704 127.636 28.024 127.636 28.472V94.232ZM153.888 94.424C153.888 94.936 150.944 95.192 145.056 95.192C139.232 95.192 136.32 94.968 136.32 94.52V47.384C136.32 46.936 139.232 46.712 145.056 46.712C150.944 46.712 153.888 46.904 153.888 47.288V94.424ZM153.888 41.624C153.888 42.072 150.944 42.296 145.056 42.296C139.232 42.296 136.32 42.104 136.32 41.72V27.896C136.32 27.256 139.232 26.936 145.056 26.936C150.944 26.936 153.888 27.128 153.888 27.512V41.624ZM158.826 47.288C158.634 46.776 161.61 46.52 167.754 46.52C173.962 46.52 177.066 46.68 177.066 47L183.978 79.64L189.162 47.48C189.354 46.904 192.522 46.616 198.666 46.616C204.874 46.616 207.882 46.872 207.69 47.384L194.154 94.328C193.706 94.968 189.898 95.288 182.73 95.288C175.562 95.288 171.722 94.808 171.21 93.848L158.826 47.288ZM248.921 92.408C244.889 94.776 239.705 95.96 233.369 95.96C227.033 95.96 221.689 93.816 217.337 89.528C212.985 85.176 210.809 79.192 210.809 71.576C210.809 63.896 212.889 57.72 217.049 53.048C221.273 48.376 226.585 46.04 232.984 46.04C239.385 46.04 244.313 47.672 247.769 50.936C251.289 54.2 253.049 58.168 253.049 62.84C253.049 73.208 247.097 78.392 235.193 78.392H228.569C228.569 80.312 229.081 81.656 230.105 82.424C231.193 83.128 232.761 83.48 234.809 83.48C239.289 83.48 243.545 82.456 247.577 80.408C247.641 80.344 247.929 80.792 248.441 81.752C249.977 84.504 250.745 86.84 250.745 88.76C250.745 90.616 250.137 91.832 248.921 92.408ZM236.921 64.664C236.921 61.976 235.609 60.632 232.984 60.632C231.769 60.632 230.713 61.016 229.817 61.784C228.985 62.488 228.569 63.544 228.569 64.952V67.928H233.753C235.865 67.928 236.921 66.84 236.921 64.664ZM280.344 94.904C280.344 95.352 277.432 95.576 271.608 95.576C265.784 95.448 262.872 95.192 262.872 94.808V62.936H260.28C259.256 62.936 258.424 62.328 257.784 61.112C257.208 59.832 256.92 58.264 256.92 56.408C256.92 49.496 258.968 46.04 263.064 46.04C265.944 46.04 268.344 46.936 270.264 48.728C272.184 50.456 273.144 52.44 273.144 54.68C274.488 52.056 276.28 49.976 278.52 48.44C280.824 46.84 283.16 46.04 285.528 46.04C289.24 46.04 291.48 47 292.248 48.92C292.44 49.432 292.536 50.2 292.536 51.224C292.536 52.184 292.216 53.944 291.576 56.504C291 59.064 290.392 60.92 289.752 62.072C289.112 63.224 288.728 63.8 288.6 63.8C288.472 63.8 287.864 63.576 286.776 63.128C285.752 62.616 284.824 62.36 283.992 62.36C281.56 62.36 280.344 64.28 280.344 68.12V94.904ZM294.023 47.48C294.023 46.776 296.935 46.424 302.759 46.424C308.647 46.424 311.687 46.744 311.879 47.384L318.791 70.04L325.415 47.192C325.671 46.68 327.655 46.424 331.367 46.424C339.879 46.424 343.943 46.84 343.559 47.672L320.999 111.896C320.935 112.28 319.175 112.472 315.719 112.472C312.327 112.472 309.159 112.344 306.215 112.088C303.271 111.896 301.863 111.64 301.991 111.32L310.343 91.16L294.023 47.48Z" fill="black"/>
<path d="M4.8 84.584V26.984C4.8 25.384 5.184 24.136 5.952 23.24C6.784 22.28 7.84 21.8 9.12 21.8H25.152C35.328 21.8 43.04 24.36 48.288 29.48C53.6 34.6 56.256 42.664 56.256 53.672C56.256 77.224 46.208 89 26.112 89H9.696C6.432 89 4.8 87.528 4.8 84.584ZM23.232 40.04V68.744C23.232 70.088 23.328 70.952 23.52 71.336C23.712 71.656 24.288 71.816 25.248 71.816C28.768 71.816 31.424 70.504 33.216 67.88C35.072 65.256 36 60.904 36 54.824C36 48.68 35.04 44.68 33.12 42.824C31.264 40.968 28.288 40.04 24.192 40.04H23.232ZM99.7643 86.408C95.7323 88.776 90.5483 89.96 84.2123 89.96C77.8763 89.96 72.5323 87.816 68.1803 83.528C63.8283 79.176 61.6523 73.192 61.6523 65.576C61.6523 57.896 63.7323 51.72 67.8923 47.048C72.1163 42.376 77.4283 40.04 83.8282 40.04C90.2283 40.04 95.1563 41.672 98.6123 44.936C102.132 48.2 103.892 52.168 103.892 56.84C103.892 67.208 97.9403 72.392 86.0363 72.392H79.4123C79.4123 74.312 79.9243 75.656 80.9483 76.424C82.0363 77.128 83.6043 77.48 85.6523 77.48C90.1323 77.48 94.3883 76.456 98.4203 74.408C98.4843 74.344 98.7723 74.792 99.2843 75.752C100.82 78.504 101.588 80.84 101.588 82.76C101.588 84.616 100.98 85.832 99.7643 86.408ZM87.7643 58.664C87.7643 55.976 86.4523 54.632 83.8282 54.632C82.6123 54.632 81.5563 55.016 80.6603 55.784C79.8283 56.488 79.4123 57.544 79.4123 58.952V61.928H84.5963C86.7083 61.928 87.7643 60.84 87.7643 58.664ZM127.636 88.232C127.636 88.808 124.372 89.096 117.844 89.096C112.724 89.032 110.164 88.776 110.164 88.328V22.952C110.164 21.992 113.268 21.512 119.476 21.512C124.916 21.704 127.636 22.024 127.636 22.472V88.232ZM153.888 88.424C153.888 88.936 150.944 89.192 145.056 89.192C139.232 89.192 136.32 88.968 136.32 88.52V41.384C136.32 40.936 139.232 40.712 145.056 40.712C150.944 40.712 153.888 40.904 153.888 41.288V88.424ZM153.888 35.624C153.888 36.072 150.944 36.296 145.056 36.296C139.232 36.296 136.32 36.104 136.32 35.72V21.896C136.32 21.256 139.232 20.936 145.056 20.936C150.944 20.936 153.888 21.128 153.888 21.512V35.624ZM158.826 41.288C158.634 40.776 161.61 40.52 167.754 40.52C173.962 40.52 177.066 40.68 177.066 41L183.978 73.64L189.162 41.48C189.354 40.904 192.522 40.616 198.666 40.616C204.874 40.616 207.882 40.872 207.69 41.384L194.154 88.328C193.706 88.968 189.898 89.288 182.73 89.288C175.562 89.288 171.722 88.808 171.21 87.848L158.826 41.288ZM248.921 86.408C244.889 88.776 239.705 89.96 233.369 89.96C227.033 89.96 221.689 87.816 217.337 83.528C212.985 79.176 210.809 73.192 210.809 65.576C210.809 57.896 212.889 51.72 217.049 47.048C221.273 42.376 226.585 40.04 232.984 40.04C239.385 40.04 244.313 41.672 247.769 44.936C251.289 48.2 253.049 52.168 253.049 56.84C253.049 67.208 247.097 72.392 235.193 72.392H228.569C228.569 74.312 229.081 75.656 230.105 76.424C231.193 77.128 232.761 77.48 234.809 77.48C239.289 77.48 243.545 76.456 247.577 74.408C247.641 74.344 247.929 74.792 248.441 75.752C249.977 78.504 250.745 80.84 250.745 82.76C250.745 84.616 250.137 85.832 248.921 86.408ZM236.921 58.664C236.921 55.976 235.609 54.632 232.984 54.632C231.769 54.632 230.713 55.016 229.817 55.784C228.985 56.488 228.569 57.544 228.569 58.952V61.928H233.753C235.865 61.928 236.921 60.84 236.921 58.664ZM280.344 88.904C280.344 89.352 277.432 89.576 271.608 89.576C265.784 89.448 262.872 89.192 262.872 88.808V56.936H260.28C259.256 56.936 258.424 56.328 257.784 55.112C257.208 53.832 256.92 52.264 256.92 50.408C256.92 43.496 258.968 40.04 263.064 40.04C265.944 40.04 268.344 40.936 270.264 42.728C272.184 44.456 273.144 46.44 273.144 48.68C274.488 46.056 276.28 43.976 278.52 42.44C280.824 40.84 283.16 40.04 285.528 40.04C289.24 40.04 291.48 41 292.248 42.92C292.44 43.432 292.536 44.2 292.536 45.224C292.536 46.184 292.216 47.944 291.576 50.504C291 53.064 290.392 54.92 289.752 56.072C289.112 57.224 288.728 57.8 288.6 57.8C288.472 57.8 287.864 57.576 286.776 57.128C285.752 56.616 284.824 56.36 283.992 56.36C281.56 56.36 280.344 58.28 280.344 62.12V88.904ZM294.023 41.48C294.023 40.776 296.935 40.424 302.759 40.424C308.647 40.424 311.687 40.744 311.879 41.384L318.791 64.04L325.415 41.192C325.671 40.68 327.655 40.424 331.367 40.424C339.879 40.424 343.943 40.84 343.559 41.672L320.999 105.896C320.935 106.28 319.175 106.472 315.719 106.472C312.327 106.472 309.159 106.344 306.215 106.088C303.271 105.896 301.863 105.64 301.991 105.32L310.343 85.16L294.023 41.48Z" fill="white"/>
<path d="M5.952 23.24L5.1963 22.5851L5.19274 22.5892L5.952 23.24ZM48.288 29.48L47.5897 30.1958L47.594 30.2L48.288 29.48ZM23.232 40.04V39.04H22.232V40.04H23.232ZM23.52 71.336L22.6256 71.7832L22.6427 71.8176L22.6625 71.8505L23.52 71.336ZM33.216 67.88L32.3996 67.3025L32.3948 67.3092L32.3902 67.316L33.216 67.88ZM33.12 42.824L32.4129 43.5311L32.4189 43.5371L32.425 43.543L33.12 42.824ZM5.8 84.584V26.984H3.8V84.584H5.8ZM5.8 26.984C5.8 25.5374 6.14633 24.5499 6.71126 23.8908L5.19274 22.5892C4.22168 23.7221 3.8 25.2306 3.8 26.984H5.8ZM6.70769 23.8949C7.34809 23.156 8.12748 22.8 9.12 22.8V20.8C7.55252 20.8 6.21991 21.404 5.19631 22.5851L6.70769 23.8949ZM9.12 22.8H25.152V20.8H9.12V22.8ZM25.152 22.8C35.1697 22.8 42.5909 25.3189 47.5897 30.1958L48.9863 28.7642C43.4891 23.4011 35.4863 20.8 25.152 20.8V22.8ZM47.594 30.2C52.6318 35.0557 55.256 42.8025 55.256 53.672H57.256C57.256 42.5255 54.5682 34.1443 48.982 28.76L47.594 30.2ZM55.256 53.672C55.256 65.3292 52.766 73.8856 47.9593 79.5189C43.1785 85.1218 35.9607 88 26.112 88V90C36.3593 90 44.2135 86.9902 49.4807 80.8171C54.722 74.6744 57.256 65.5668 57.256 53.672H55.256ZM26.112 88H9.696V90H26.112V88ZM9.696 88C8.19412 88 7.25442 87.6591 6.69377 87.1534C6.15273 86.6654 5.8 85.8737 5.8 84.584H3.8C3.8 86.2383 4.26327 87.6546 5.35423 88.6386C6.42558 89.6049 7.93388 90 9.696 90V88ZM22.232 40.04V68.744H24.232V40.04H22.232ZM22.232 68.744C22.232 69.4353 22.2565 70.0277 22.3101 70.5104C22.3606 70.9647 22.4465 71.425 22.6256 71.7832L24.4144 70.8888C24.4145 70.8889 24.3944 70.8459 24.3684 70.7331C24.3435 70.6255 24.319 70.4797 24.2979 70.2896C24.2555 69.9083 24.232 69.3967 24.232 68.744H22.232ZM22.6625 71.8505C22.9504 72.3303 23.4353 72.5503 23.8284 72.6595C24.2398 72.7738 24.7251 72.816 25.248 72.816V70.816C24.8109 70.816 24.5282 70.7782 24.3636 70.7325C24.1807 70.6817 24.2816 70.6617 24.3775 70.8215L22.6625 71.8505ZM25.248 72.816C29.0567 72.816 32.0411 71.3736 34.0418 68.444L32.3902 67.316C30.8069 69.6344 28.4793 70.816 25.248 70.816V72.816ZM34.0324 68.4575C36.0746 65.5703 37 60.9533 37 54.824H35C35 60.8547 34.0694 64.9417 32.3996 67.3025L34.0324 68.4575ZM37 54.824C37 51.7079 36.7573 49.0866 36.2524 46.9826C35.7502 44.89 34.967 43.2186 33.815 42.105L32.425 43.543C33.193 44.2854 33.8498 45.542 34.3076 47.4494C34.7627 49.3454 35 51.7961 35 54.824H37ZM33.8271 42.1169C31.7015 39.9913 28.4087 39.04 24.192 39.04V41.04C28.1673 41.04 30.8265 41.9447 32.4129 43.5311L33.8271 42.1169ZM24.192 39.04H23.232V41.04H24.192V39.04ZM99.7643 86.408L99.3362 85.5043L99.2961 85.5233L99.2578 85.5457L99.7643 86.408ZM68.1803 83.528L67.4731 84.2351L67.4784 84.2403L68.1803 83.528ZM67.8923 47.048L67.1505 46.3773L67.1454 46.383L67.8923 47.048ZM98.6123 44.936L97.9256 45.663L97.9323 45.6693L98.6123 44.936ZM79.4123 72.392V71.392H78.4123V72.392H79.4123ZM80.9482 76.424L80.3483 77.224L80.3759 77.2448L80.405 77.2636L80.9482 76.424ZM98.4202 74.408L98.8731 75.2996L99.0149 75.2276L99.1273 75.1151L98.4202 74.408ZM99.2842 75.752L98.4019 76.2226L98.4064 76.231L98.4111 76.2394L99.2842 75.752ZM80.6602 55.784L81.3062 56.5474L81.311 56.5433L80.6602 55.784ZM79.4123 61.928H78.4123V62.928H79.4123V61.928ZM99.2578 85.5457C95.4245 87.797 90.4311 88.96 84.2122 88.96V90.96C90.6655 90.96 96.04 89.755 100.271 87.2703L99.2578 85.5457ZM84.2122 88.96C78.1281 88.96 73.0394 86.9119 68.8821 82.8157L67.4784 84.2403C72.0251 88.7201 77.6244 90.96 84.2122 90.96V88.96ZM68.8874 82.8209C64.7653 78.6989 62.6522 72.9935 62.6522 65.576H60.6522C60.6522 73.3905 62.8912 79.6531 67.4731 84.2351L68.8874 82.8209ZM62.6522 65.576C62.6522 58.0829 64.6772 52.1626 68.6391 47.713L67.1454 46.383C62.7873 51.2774 60.6522 57.7091 60.6522 65.576H62.6522ZM68.634 47.7186C72.665 43.2602 77.7057 41.04 83.8282 41.04V39.04C77.1508 39.04 71.5675 41.4918 67.1505 46.3774L68.634 47.7186ZM83.8282 41.04C90.0632 41.04 94.7119 42.6278 97.9256 45.663L99.2989 44.209C95.6006 40.7162 90.3933 39.04 83.8282 39.04V41.04ZM97.9323 45.6693C101.255 48.7499 102.892 52.4549 102.892 56.84H104.892C104.892 51.8811 103.01 47.6501 99.2922 44.2027L97.9323 45.6693ZM102.892 56.84C102.892 61.8311 101.466 65.4031 98.7715 67.7499C96.0505 70.1198 91.8654 71.392 86.0362 71.392V73.392C92.1111 73.392 96.854 72.0722 100.085 69.2581C103.342 66.4209 104.892 62.2169 104.892 56.84H102.892ZM86.0362 71.392H79.4123V73.392H86.0362V71.392ZM78.4123 72.392C78.4123 74.4636 78.9656 76.187 80.3483 77.224L81.5482 75.624C80.8829 75.125 80.4123 74.1604 80.4123 72.392H78.4123ZM80.405 77.2636C81.7235 78.1167 83.514 78.48 85.6523 78.48V76.48C83.6945 76.48 82.349 76.1393 81.4915 75.5844L80.405 77.2636ZM85.6523 78.48C90.2912 78.48 94.7022 77.4182 98.8731 75.2996L97.9674 73.5164C94.0743 75.4939 89.9733 76.48 85.6523 76.48V78.48ZM99.1273 75.1151C98.9404 75.3021 98.6894 75.402 98.4349 75.402C98.2166 75.402 98.0574 75.3294 97.9842 75.2904C97.9043 75.2477 97.8505 75.2038 97.8257 75.1824C97.798 75.1584 97.7802 75.1395 97.7731 75.1317C97.7567 75.1138 97.777 75.1339 97.8431 75.2368C97.9641 75.425 98.1484 75.7473 98.4019 76.2226L100.167 75.2814C99.9081 74.7967 99.6924 74.415 99.5254 74.1552C99.4475 74.034 99.3518 73.8942 99.2474 73.7803C99.2056 73.7347 99.0942 73.6157 98.9253 73.5256C98.8371 73.4786 98.6646 73.402 98.4349 73.402C98.1688 73.402 97.9081 73.5059 97.7132 73.7009L99.1273 75.1151ZM98.4111 76.2394C99.9114 78.9275 100.588 81.087 100.588 82.76H102.588C102.588 80.593 101.729 78.0806 100.157 75.2646L98.4111 76.2394ZM100.588 82.76C100.588 84.4006 100.071 85.1561 99.3362 85.5043L100.192 87.3117C101.889 86.5079 102.588 84.8314 102.588 82.76H100.588ZM88.7643 58.664C88.7643 57.1718 88.4002 55.8679 87.4958 54.9415C86.5871 54.0106 85.3006 53.632 83.8282 53.632V55.632C84.9799 55.632 85.6614 55.9254 86.0647 56.3385C86.4723 56.7561 86.7643 57.4682 86.7643 58.664H88.7643ZM83.8282 53.632C82.3815 53.632 81.0926 54.0963 80.0095 55.0247L81.311 56.5433C82.0199 55.9357 82.843 55.632 83.8282 55.632V53.632ZM80.0143 55.0206C78.8958 55.967 78.4123 57.342 78.4123 58.952H80.4123C80.4123 57.746 80.7607 57.009 81.3062 56.5474L80.0143 55.0206ZM78.4123 58.952V61.928H80.4123V58.952H78.4123ZM79.4123 62.928H84.5963V60.928H79.4123V62.928ZM84.5963 62.928C85.8141 62.928 86.9094 62.6126 87.6898 61.8085C88.4649 61.0099 88.7643 59.8988 88.7643 58.664H86.7643C86.7643 59.6052 86.5356 60.1261 86.2547 60.4155C85.9791 60.6994 85.4904 60.928 84.5963 60.928V62.928ZM117.844 89.096L117.831 90.096H117.844V89.096ZM119.476 21.512L119.511 20.5126L119.493 20.512H119.476V21.512ZM126.636 88.232C126.636 88.014 126.718 87.8422 126.8 87.7338C126.873 87.6368 126.943 87.5923 126.957 87.5837C126.979 87.5701 126.937 87.5984 126.768 87.6433C126.445 87.7288 125.901 87.8131 125.1 87.8839C123.513 88.0239 121.101 88.096 117.844 88.096V90.096C121.114 90.096 123.598 90.0241 125.276 89.8761C126.106 89.8029 126.787 89.7072 127.28 89.5767C127.518 89.5136 127.782 89.4249 128.008 89.2853C128.204 89.1645 128.636 88.835 128.636 88.232H126.636ZM117.856 88.0961C115.303 88.0642 113.418 87.9845 112.183 87.861C111.558 87.7984 111.145 87.7288 110.909 87.6638C110.783 87.6292 110.772 87.6129 110.814 87.639C110.822 87.6443 111.164 87.8529 111.164 88.328H109.164C109.164 88.9151 109.585 89.2297 109.754 89.335C109.956 89.4611 110.185 89.5388 110.379 89.5922C110.782 89.7032 111.33 89.7856 111.984 89.851C113.309 89.9835 115.265 90.0638 117.831 90.0959L117.856 88.0961ZM111.164 88.328V22.952H109.164V88.328H111.164ZM111.164 22.952C111.164 23.3418 110.843 23.3793 111.167 23.2291C111.426 23.1087 111.898 22.9757 112.645 22.8603C114.118 22.6324 116.384 22.512 119.476 22.512V20.512C116.36 20.512 113.969 20.6316 112.339 20.8837C111.534 21.0082 110.841 21.1753 110.325 21.4149C109.873 21.6247 109.164 22.0822 109.164 22.952H111.164ZM119.44 22.5114C122.154 22.6072 124.161 22.7341 125.479 22.8891C126.145 22.9676 126.592 23.0484 126.854 23.1224C126.993 23.1615 127.017 23.1819 126.986 23.163C126.969 23.1525 126.895 23.106 126.818 23.008C126.733 22.8998 126.636 22.7156 126.636 22.472H128.636C128.636 21.8635 128.181 21.5496 128.03 21.457C127.829 21.3341 127.599 21.2545 127.397 21.1976C126.979 21.0796 126.406 20.9844 125.713 20.9028C124.311 20.7379 122.237 20.6088 119.511 20.5126L119.44 22.5114ZM126.636 22.472V88.232H128.636V22.472H126.636ZM152.888 88.424C152.888 88.198 152.974 88.0204 153.06 87.9086C153.137 87.8083 153.212 87.761 153.23 87.7498C153.262 87.7307 153.234 87.7532 153.084 87.7924C152.799 87.8665 152.315 87.941 151.593 88.0038C150.166 88.1279 147.993 88.192 145.056 88.192V90.192C148.007 90.192 150.25 90.1281 151.767 89.9962C152.517 89.931 153.137 89.8455 153.588 89.7276C153.806 89.6708 154.054 89.5893 154.27 89.4582C154.452 89.3476 154.888 89.0261 154.888 88.424H152.888ZM145.056 88.192C142.15 88.192 139.997 88.1359 138.581 88.0269C137.865 87.9719 137.38 87.9062 137.091 87.8396C136.938 87.8043 136.904 87.7827 136.931 87.797C136.945 87.8047 137.024 87.8479 137.11 87.9464C137.205 88.0567 137.32 88.2535 137.32 88.52H135.32C135.32 89.1753 135.842 89.4822 135.982 89.558C136.191 89.6703 136.43 89.7397 136.641 89.7884C137.08 89.8898 137.687 89.9641 138.427 90.0211C139.923 90.1361 142.138 90.192 145.056 90.192V88.192ZM137.32 88.52V41.384H135.32V88.52H137.32ZM137.32 41.384C137.32 41.6505 137.205 41.8473 137.11 41.9576C137.024 42.0561 136.945 42.0993 136.931 42.107C136.904 42.1213 136.938 42.0997 137.091 42.0644C137.38 41.9978 137.865 41.9321 138.581 41.8771C139.997 41.7681 142.15 41.712 145.056 41.712V39.712C142.138 39.712 139.923 39.7679 138.427 39.8829C137.687 39.9399 137.08 40.0142 136.641 40.1156C136.43 40.1643 136.191 40.2337 135.982 40.346C135.842 40.4218 135.32 40.7287 135.32 41.384H137.32ZM145.056 41.712C147.995 41.712 150.177 41.7601 151.615 41.8539C152.341 41.9012 152.841 41.9581 153.144 42.0174C153.304 42.0488 153.351 42.07 153.335 42.0627C153.329 42.0599 153.247 42.0241 153.154 41.9331C153.053 41.8338 152.888 41.615 152.888 41.288H154.888C154.888 40.913 154.7 40.6477 154.553 40.5034C154.414 40.3674 154.263 40.2881 154.165 40.2433C153.965 40.152 153.736 40.0952 153.528 40.0546C153.095 39.9699 152.491 39.9068 151.745 39.8581C150.239 39.7599 148.005 39.712 145.056 39.712V41.712ZM152.888 41.288V88.424H154.888V41.288H152.888ZM152.888 35.624C152.888 35.354 153.005 35.1559 153.101 35.0464C153.187 34.9484 153.267 34.9059 153.28 34.8989C153.305 34.8855 153.269 34.9076 153.113 34.9431C152.82 35.0101 152.328 35.0758 151.604 35.1309C150.171 35.2399 147.994 35.296 145.056 35.296V37.296C148.006 37.296 150.245 37.2401 151.756 37.1251C152.504 37.0682 153.116 36.9939 153.559 36.8929C153.771 36.8444 154.011 36.7755 154.22 36.6641C154.358 36.5908 154.888 36.2848 154.888 35.624H152.888ZM145.056 35.296C142.149 35.296 139.992 35.2479 138.57 35.1542C137.852 35.1068 137.359 35.05 137.06 34.991C136.902 34.9597 136.858 34.9389 136.876 34.947C136.883 34.9503 136.964 34.9868 137.057 35.0787C137.159 35.1793 137.32 35.397 137.32 35.72H135.32C135.32 36.091 135.504 36.3552 135.651 36.5008C135.789 36.6377 135.939 36.7177 136.037 36.763C136.237 36.8551 136.466 36.9123 136.672 36.953C137.101 37.0379 137.7 37.1012 138.438 37.1498C139.928 37.2481 142.139 37.296 145.056 37.296V35.296ZM137.32 35.72V21.896H135.32V35.72H137.32ZM137.32 21.896C137.32 22.2451 137.109 22.4308 137.066 22.4636C137.028 22.4931 137.042 22.4708 137.179 22.4257C137.442 22.3392 137.904 22.2479 138.613 22.17C140.013 22.0162 142.152 21.936 145.056 21.936V19.936C142.136 19.936 139.907 20.0158 138.395 20.182C137.648 20.264 137.018 20.3728 136.553 20.5263C136.326 20.6012 136.067 20.7089 135.847 20.8784C135.622 21.0512 135.32 21.3869 135.32 21.896H137.32ZM145.056 21.936C147.995 21.936 150.177 21.9841 151.615 22.0779C152.341 22.1252 152.841 22.1821 153.144 22.2414C153.304 22.2728 153.351 22.294 153.335 22.2867C153.329 22.2839 153.247 22.2481 153.154 22.1571C153.053 22.0578 152.888 21.839 152.888 21.512H154.888C154.888 21.137 154.7 20.8717 154.553 20.7274C154.414 20.5914 154.263 20.5121 154.165 20.4673C153.965 20.376 153.736 20.3192 153.528 20.2786C153.095 20.1939 152.491 20.1308 151.745 20.0821C150.239 19.9839 148.005 19.936 145.056 19.936V21.936ZM152.888 21.512V35.624H154.888V21.512H152.888ZM158.826 41.288L159.792 41.031L159.78 40.9832L159.762 40.9369L158.826 41.288ZM177.066 41H176.066V41.1047L176.088 41.2072L177.066 41ZM183.978 73.64L183 73.8472L184.965 73.7991L183.978 73.64ZM189.162 41.48L188.213 41.1638L188.188 41.2407L188.175 41.3209L189.162 41.48ZM207.69 41.384L206.754 41.0329L206.74 41.0694L206.729 41.1069L207.69 41.384ZM194.154 88.328L194.973 88.9015L195.069 88.7651L195.115 88.6051L194.154 88.328ZM171.21 87.848L170.244 88.105L170.273 88.2167L170.328 88.3186L171.21 87.848ZM159.762 40.9369C159.836 41.1323 159.84 41.3676 159.747 41.5861C159.667 41.7748 159.547 41.8749 159.501 41.9093C159.422 41.9684 159.398 41.9558 159.542 41.916C159.797 41.8457 160.267 41.7714 161 41.7083C162.443 41.5842 164.687 41.52 167.754 41.52V39.52C164.677 39.52 162.361 39.5838 160.828 39.7157C160.073 39.7806 159.451 39.8663 159.01 39.988C158.806 40.0442 158.533 40.1356 158.304 40.3067C158.183 40.3971 158.012 40.5552 157.907 40.8039C157.788 41.0824 157.792 41.3797 157.89 41.6391L159.762 40.9369ZM167.754 41.52C170.854 41.52 173.161 41.56 174.687 41.6387C175.455 41.6783 175.995 41.7263 176.331 41.7783C176.413 41.7909 176.475 41.8026 176.521 41.8128C176.569 41.8235 176.585 41.8297 176.581 41.8281C176.578 41.8271 176.562 41.8213 176.538 41.8093C176.516 41.798 176.471 41.7741 176.418 41.733C176.331 41.6654 176.066 41.4261 176.066 41H178.066C178.066 40.5339 177.777 40.2558 177.641 40.1508C177.497 40.0395 177.349 39.9791 177.26 39.9469C177.07 39.8785 176.848 39.8345 176.637 39.8017C176.197 39.7337 175.573 39.6817 174.789 39.6413C173.211 39.56 170.862 39.52 167.754 39.52V41.52ZM176.088 41.2072L183 73.8472L184.956 73.4328L178.044 40.7928L176.088 41.2072ZM184.965 73.7991L190.149 41.6391L188.175 41.3209L182.991 73.4809L184.965 73.7991ZM190.111 41.7962C190.012 42.0924 189.8 42.1833 189.848 42.158C189.863 42.1497 189.939 42.1153 190.113 42.0705C190.455 41.9826 190.998 41.8983 191.773 41.8279C193.31 41.6881 195.602 41.616 198.666 41.616V39.616C195.586 39.616 193.222 39.6879 191.591 39.8361C190.782 39.9097 190.113 40.0054 189.615 40.1335C189.369 40.1967 189.118 40.2793 188.899 40.397C188.713 40.4977 188.36 40.7236 188.213 41.1638L190.111 41.7962ZM198.666 41.616C201.765 41.616 204.034 41.6802 205.493 41.8044C206.234 41.8675 206.711 41.9419 206.971 42.0128C207.118 42.0528 207.096 42.0662 207.019 42.0091C206.974 41.976 206.853 41.877 206.771 41.6886C206.676 41.4692 206.679 41.2313 206.754 41.0329L208.626 41.7351C208.725 41.4727 208.727 41.1728 208.606 40.8934C208.498 40.645 208.326 40.488 208.205 40.3989C207.976 40.2298 207.702 40.1392 207.497 40.0832C207.053 39.9621 206.426 39.8765 205.663 39.8116C204.114 39.6798 201.775 39.616 198.666 39.616V41.616ZM206.729 41.1069L193.193 88.0509L195.115 88.6051L208.651 41.6611L206.729 41.1069ZM193.335 87.7545C193.439 87.6054 193.538 87.5889 193.43 87.6359C193.349 87.6712 193.202 87.7197 192.968 87.7725C192.502 87.8776 191.813 87.973 190.878 88.0515C189.017 88.208 186.306 88.288 182.73 88.288V90.288C186.322 90.288 189.099 90.208 191.046 90.0445C192.015 89.963 192.81 89.8584 193.408 89.7235C193.706 89.6563 193.986 89.5749 194.227 89.4701C194.441 89.3771 194.757 89.2106 194.973 88.9015L193.335 87.7545ZM182.73 88.288C179.159 88.288 176.456 88.168 174.598 87.9357C173.665 87.8191 172.987 87.679 172.532 87.5286C172.305 87.4536 172.166 87.3861 172.088 87.3375C172.005 87.2856 172.045 87.2881 172.092 87.3774L170.328 88.3186C170.503 88.6479 170.775 88.8754 171.028 89.0335C171.286 89.1949 171.587 89.3224 171.904 89.4274C172.537 89.637 173.363 89.7969 174.35 89.9203C176.332 90.168 179.133 90.288 182.73 90.288V88.288ZM172.176 87.591L159.792 41.031L157.86 41.545L170.244 88.105L172.176 87.591ZM248.921 86.408L248.492 85.5043L248.452 85.5233L248.414 85.5457L248.921 86.408ZM217.337 83.528L216.629 84.2351L216.635 84.2403L217.337 83.528ZM217.049 47.048L216.307 46.3773L216.302 46.383L217.049 47.048ZM247.768 44.936L247.082 45.663L247.089 45.6693L247.768 44.936ZM228.568 72.392V71.392H227.568V72.392H228.568ZM230.105 76.424L229.505 77.224L229.532 77.2448L229.561 77.2636L230.105 76.424ZM247.577 74.408L248.029 75.2996L248.171 75.2276L248.284 75.1151L247.577 74.408ZM248.441 75.752L247.558 76.2226L247.563 76.231L247.567 76.2394L248.441 75.752ZM229.816 55.784L230.462 56.5474L230.467 56.5433L229.816 55.784ZM228.568 61.928H227.568V62.928H228.568V61.928ZM248.414 85.5457C244.581 87.797 239.587 88.96 233.368 88.96V90.96C239.822 90.96 245.196 89.755 249.427 87.2703L248.414 85.5457ZM233.368 88.96C227.284 88.96 222.196 86.9119 218.038 82.8157L216.635 84.2403C221.181 88.7201 226.781 90.96 233.368 90.96V88.96ZM218.044 82.8209C213.922 78.6989 211.809 72.9935 211.809 65.576H209.809C209.809 73.3905 212.047 79.6531 216.629 84.2351L218.044 82.8209ZM211.809 65.576C211.809 58.0829 213.833 52.1626 217.795 47.713L216.302 46.383C211.944 51.2774 209.809 57.7091 209.809 65.576H211.809ZM217.79 47.7186C221.821 43.2602 226.862 41.04 232.984 41.04V39.04C226.307 39.04 220.724 41.4918 216.307 46.3774L217.79 47.7186ZM232.984 41.04C239.219 41.04 243.868 42.6278 247.082 45.663L248.455 44.209C244.757 40.7162 239.55 39.04 232.984 39.04V41.04ZM247.089 45.6693C250.411 48.7499 252.049 52.4549 252.049 56.84H254.049C254.049 51.8811 252.166 47.6501 248.448 44.2027L247.089 45.6693ZM252.049 56.84C252.049 61.8311 250.622 65.4031 247.928 67.7499C245.207 70.1198 241.022 71.392 235.193 71.392V73.392C241.267 73.392 246.01 72.0722 249.241 69.2581C252.499 66.4209 254.049 62.2169 254.049 56.84H252.049ZM235.193 71.392H228.568V73.392H235.193V71.392ZM227.568 72.392C227.568 74.4636 228.122 76.187 229.505 77.224L230.704 75.624C230.039 75.125 229.568 74.1604 229.568 72.392H227.568ZM229.561 77.2636C230.88 78.1167 232.67 78.48 234.809 78.48V76.48C232.851 76.48 231.505 76.1393 230.648 75.5844L229.561 77.2636ZM234.809 78.48C239.447 78.48 243.858 77.4182 248.029 75.2996L247.124 73.5164C243.231 75.4939 239.13 76.48 234.809 76.48V78.48ZM248.284 75.1151C248.097 75.3021 247.846 75.402 247.591 75.402C247.373 75.402 247.214 75.3294 247.14 75.2904C247.061 75.2477 247.007 75.2038 246.982 75.1824C246.954 75.1584 246.936 75.1395 246.929 75.1317C246.913 75.1138 246.933 75.1339 246.999 75.2368C247.12 75.425 247.305 75.7473 247.558 76.2226L249.323 75.2814C249.064 74.7967 248.849 74.415 248.682 74.1552C248.604 74.034 248.508 73.8942 248.404 73.7803C248.362 73.7347 248.25 73.6157 248.082 73.5256C247.993 73.4786 247.821 73.402 247.591 73.402C247.325 73.402 247.064 73.5059 246.869 73.7009L248.284 75.1151ZM247.567 76.2394C249.068 78.9275 249.745 81.087 249.745 82.76H251.745C251.745 80.593 250.885 78.0806 249.314 75.2646L247.567 76.2394ZM249.745 82.76C249.745 84.4006 249.227 85.1561 248.492 85.5043L249.349 87.3117C251.046 86.5079 251.745 84.8314 251.745 82.76H249.745ZM237.921 58.664C237.921 57.1718 237.556 55.8679 236.652 54.9415C235.743 54.0106 234.457 53.632 232.984 53.632V55.632C234.136 55.632 234.818 55.9254 235.221 56.3385C235.629 56.7561 235.921 57.4682 235.921 58.664H237.921ZM232.984 53.632C231.538 53.632 230.249 54.0963 229.166 55.0247L230.467 56.5433C231.176 55.9357 231.999 55.632 232.984 55.632V53.632ZM229.171 55.0206C228.052 55.967 227.568 57.342 227.568 58.952H229.568C229.568 57.746 229.917 57.009 230.462 56.5474L229.171 55.0206ZM227.568 58.952V61.928H229.568V58.952H227.568ZM228.568 62.928H233.753V60.928H228.568V62.928ZM233.753 62.928C234.97 62.928 236.066 62.6126 236.846 61.8085C237.621 61.0099 237.921 59.8988 237.921 58.664H235.921C235.921 59.6052 235.692 60.1261 235.411 60.4155C235.135 60.6994 234.647 60.928 233.753 60.928V62.928ZM271.608 89.576L271.586 90.5758L271.597 90.576H271.608V89.576ZM262.872 56.936H263.872V55.936H262.872V56.936ZM257.784 55.112L256.872 55.5224L256.885 55.5505L256.899 55.5777L257.784 55.112ZM270.264 42.728L269.582 43.4591L269.588 43.4652L269.595 43.4713L270.264 42.728ZM273.144 48.68H272.144L274.034 49.1359L273.144 48.68ZM278.52 42.44L279.086 43.2647L279.09 43.2614L278.52 42.44ZM292.248 42.92L293.184 42.5689L293.181 42.5587L293.176 42.5486L292.248 42.92ZM291.576 50.504L290.606 50.2615L290.603 50.2729L290.6 50.2845L291.576 50.504ZM286.776 57.128L286.329 58.0224L286.361 58.0388L286.395 58.0527L286.776 57.128ZM279.344 88.904C279.344 88.6375 279.459 88.4407 279.554 88.3304C279.64 88.2319 279.719 88.1887 279.733 88.181C279.76 88.1667 279.726 88.1883 279.573 88.2236C279.284 88.2902 278.799 88.3559 278.083 88.4109C276.667 88.5199 274.514 88.576 271.608 88.576V90.576C274.526 90.576 276.741 90.5201 278.237 90.4051C278.977 90.3481 279.584 90.2738 280.023 90.1724C280.234 90.1237 280.473 90.0543 280.682 89.942C280.822 89.8662 281.344 89.5593 281.344 88.904H279.344ZM271.63 88.5762C268.723 88.5124 266.566 88.4169 265.144 88.2918C264.426 88.2288 263.932 88.1611 263.633 88.0953C263.474 88.0605 263.429 88.0384 263.444 88.0457C263.45 88.0486 263.528 88.0851 263.617 88.1753C263.713 88.2726 263.872 88.4875 263.872 88.808H261.872C261.872 89.1765 262.053 89.4384 262.195 89.5817C262.33 89.7179 262.476 89.7994 262.573 89.8463C262.77 89.9416 262.998 90.0035 263.203 90.0487C263.632 90.1429 264.23 90.2192 264.968 90.2842C266.458 90.4151 268.669 90.5117 271.586 90.5758L271.63 88.5762ZM263.872 88.808V56.936H261.872V88.808H263.872ZM262.872 55.936H260.28V57.936H262.872V55.936ZM260.28 55.936C259.754 55.936 259.204 55.6635 258.669 54.6463L256.899 55.5777C257.644 56.9925 258.758 57.936 260.28 57.936V55.936ZM258.696 54.7016C258.193 53.5851 257.92 52.1659 257.92 50.408H255.92C255.92 52.3621 256.223 54.0789 256.872 55.5224L258.696 54.7016ZM257.92 50.408C257.92 47.0181 258.428 44.6408 259.316 43.1418C260.156 41.7249 261.361 41.04 263.064 41.04V39.04C260.671 39.04 258.804 40.0831 257.596 42.1222C256.436 44.0792 255.92 46.8859 255.92 50.408H257.92ZM263.064 41.04C265.717 41.04 267.865 41.8572 269.582 43.4591L270.946 41.9969C268.823 40.0148 266.171 39.04 263.064 39.04V41.04ZM269.595 43.4713C271.34 45.0417 272.144 46.7681 272.144 48.68H274.144C274.144 46.1119 273.028 43.8703 270.933 41.9847L269.595 43.4713ZM274.034 49.1359C275.309 46.6469 276.994 44.6988 279.086 43.2647L277.954 41.6153C275.566 43.2532 273.667 45.4651 272.254 48.2241L274.034 49.1359ZM279.09 43.2614C281.259 41.7557 283.399 41.04 285.528 41.04V39.04C282.921 39.04 280.389 39.9243 277.95 41.6186L279.09 43.2614ZM285.528 41.04C289.178 41.04 290.801 41.9939 291.32 43.2914L293.176 42.5486C292.159 40.0061 289.301 39.04 285.528 39.04V41.04ZM291.312 43.2711C291.439 43.6116 291.536 44.2341 291.536 45.224H293.536C293.536 44.1659 293.441 43.2523 293.184 42.5689L291.312 43.2711ZM291.536 45.224C291.536 46.0432 291.249 47.6886 290.606 50.2615L292.546 50.7465C293.183 48.1993 293.536 46.3248 293.536 45.224H291.536ZM290.6 50.2845C290.029 52.8243 289.445 54.5646 288.878 55.5864L290.626 56.5576C291.339 55.2754 291.971 53.3037 292.552 50.7235L290.6 50.2845ZM288.878 55.5864C288.562 56.1558 288.321 56.5595 288.152 56.8133C288.065 56.944 288.015 57.0071 287.997 57.0276C287.986 57.0397 288.008 57.0118 288.06 56.973C288.087 56.9528 288.14 56.9158 288.217 56.8813C288.291 56.848 288.424 56.8 288.6 56.8V58.8C288.953 58.8 289.194 58.6228 289.26 58.573C289.36 58.4982 289.438 58.4162 289.491 58.3564C289.601 58.2329 289.711 58.08 289.816 57.9227C290.031 57.6004 290.302 57.1402 290.626 56.5576L288.878 55.5864ZM288.6 56.8C288.659 56.8 288.702 56.8059 288.718 56.8083C288.737 56.8112 288.749 56.8138 288.75 56.8141C288.751 56.8144 288.738 56.8114 288.705 56.8013C288.64 56.7814 288.538 56.7468 288.394 56.6937C288.107 56.5881 287.697 56.4257 287.157 56.2033L286.395 58.0527C286.943 58.2783 287.381 58.4519 287.702 58.5703C287.862 58.6292 288.004 58.6786 288.123 58.7147C288.189 58.735 288.394 58.8 288.6 58.8V56.8ZM287.223 56.2336C286.11 55.6768 285.026 55.36 283.992 55.36V57.36C284.622 57.36 285.394 57.5552 286.329 58.0224L287.223 56.2336ZM283.992 55.36C282.462 55.36 281.217 55.9919 280.411 57.2649C279.654 58.4608 279.344 60.1267 279.344 62.12H281.344C281.344 60.2733 281.642 59.0592 282.101 58.3351C282.511 57.6881 283.09 57.36 283.992 57.36V55.36ZM279.344 62.12V88.904H281.344V62.12H279.344ZM294.022 41.48H293.022V41.6607L293.086 41.83L294.022 41.48ZM311.879 41.384L310.921 41.6713L310.922 41.6758L311.879 41.384ZM318.79 64.04L317.834 64.3318L318.815 67.547L319.751 64.3185L318.79 64.04ZM325.414 41.192L324.52 40.7448L324.479 40.8262L324.454 40.9135L325.414 41.192ZM343.559 41.672L342.651 41.2529L342.631 41.2959L342.615 41.3406L343.559 41.672ZM320.999 105.896L320.055 105.565L320.026 105.646L320.012 105.732L320.999 105.896ZM306.215 106.088L306.301 105.092L306.29 105.091L306.28 105.09L306.215 106.088ZM301.991 105.32L301.067 104.937L301.062 104.949L301.991 105.32ZM310.342 85.16L311.266 85.5427L311.417 85.1789L311.279 84.81L310.342 85.16ZM295.022 41.48C295.022 41.7809 294.854 41.954 294.805 41.9959C294.767 42.0282 294.778 42.0057 294.909 41.9581C295.164 41.8656 295.62 41.7662 296.327 41.6808C297.721 41.5122 299.856 41.424 302.759 41.424V39.424C299.837 39.424 297.604 39.5117 296.086 39.6952C295.337 39.7858 294.701 39.9064 294.228 40.0779C293.995 40.1623 293.733 40.2828 293.513 40.4691C293.282 40.665 293.022 41.0031 293.022 41.48H295.022ZM302.759 41.424C305.693 41.424 307.883 41.5041 309.35 41.6585C310.089 41.7364 310.6 41.8288 310.916 41.9226C310.991 41.945 311.048 41.9653 311.089 41.9821C311.13 41.9993 311.147 42.0094 311.146 42.0091C311.146 42.0086 311.138 42.0037 311.125 41.9937C311.113 41.9838 311.093 41.967 311.071 41.9421C311.025 41.8923 310.96 41.8029 310.921 41.6713L312.836 41.0966C312.711 40.6784 312.404 40.4354 312.2 40.3089C311.98 40.1731 311.729 40.0778 311.485 40.0054C310.993 39.8592 310.34 39.7516 309.559 39.6695C307.986 39.5039 305.712 39.424 302.759 39.424V41.424ZM310.922 41.6758L317.834 64.3318L319.747 63.7482L312.835 41.0922L310.922 41.6758ZM319.751 64.3185L326.375 41.4704L324.454 40.9135L317.83 63.7615L319.751 64.3185ZM326.309 41.6392C326.234 41.7886 326.139 41.8487 326.137 41.85C326.131 41.8539 326.162 41.8339 326.255 41.8019C326.442 41.7376 326.754 41.6682 327.222 41.6078C328.15 41.488 329.524 41.424 331.367 41.424V39.424C329.497 39.424 328.023 39.4879 326.967 39.6242C326.443 39.6918 325.979 39.7824 325.606 39.91C325.419 39.9741 325.224 40.0581 325.046 40.174C324.872 40.2873 324.659 40.4674 324.52 40.7448L326.309 41.6392ZM331.367 41.424C335.617 41.424 338.718 41.5283 340.697 41.7308C341.701 41.8336 342.344 41.9553 342.691 42.073C342.883 42.138 342.863 42.1627 342.787 42.0866C342.736 42.0357 342.642 41.9206 342.602 41.7362C342.559 41.5411 342.597 41.3688 342.651 41.2529L344.466 42.0911C344.568 41.8712 344.619 41.5982 344.555 41.3055C344.493 41.0237 344.343 40.8143 344.201 40.6724C343.943 40.4142 343.602 40.27 343.334 40.179C342.761 39.9846 341.928 39.8464 340.9 39.7412C338.815 39.5277 335.628 39.424 331.367 39.424V41.424ZM342.615 41.3406L320.055 105.565L321.942 106.227L344.502 42.0034L342.615 41.3406ZM320.012 105.732C320.067 105.4 320.281 105.24 320.328 105.207C320.383 105.169 320.401 105.172 320.331 105.194C320.198 105.236 319.942 105.288 319.522 105.334C318.698 105.424 317.437 105.472 315.719 105.472V107.472C317.456 107.472 318.803 107.424 319.739 107.322C320.199 107.272 320.611 107.204 320.934 107.102C321.092 107.052 321.285 106.977 321.462 106.855C321.631 106.738 321.914 106.488 321.985 106.06L320.012 105.732ZM315.719 105.472C312.351 105.472 309.212 105.345 306.301 105.092L306.128 107.084C309.105 107.343 312.302 107.472 315.719 107.472V105.472ZM306.28 105.09C304.815 104.995 303.774 104.885 303.129 104.768C302.793 104.707 302.637 104.656 302.593 104.636C302.56 104.621 302.667 104.659 302.779 104.793C302.941 104.985 303.064 105.329 302.919 105.691L301.062 104.949C300.885 105.391 301.024 105.813 301.25 106.081C301.426 106.291 301.645 106.403 301.772 106.46C302.048 106.584 302.404 106.669 302.772 106.736C303.535 106.875 304.67 106.989 306.149 107.086L306.28 105.09ZM302.914 105.703L311.266 85.5427L309.419 84.7773L301.067 104.937L302.914 105.703ZM311.279 84.81L294.959 41.13L293.086 41.83L309.406 85.51L311.279 84.81Z" fill="black"/>
</svg>
