<svg width="445" height="160" viewBox="0 0 445 160" fill="none" xmlns="http://www.w3.org/2000/svg">
<path d="M47 142.28H42.08V141H53.4V142.28H48.48V155H47V142.28ZM60.8244 144.4C62.1444 144.4 63.191 144.787 63.9644 145.56C64.751 146.32 65.1444 147.433 65.1444 148.9V155H63.7244V149.04C63.7244 147.947 63.451 147.113 62.9044 146.54C62.3577 145.967 61.5777 145.68 60.5644 145.68C59.431 145.68 58.531 146.02 57.8644 146.7C57.211 147.367 56.8844 148.293 56.8844 149.48V155H55.4644V140.16H56.8844V146.32C57.271 145.707 57.8044 145.233 58.4844 144.9C59.1644 144.567 59.9444 144.4 60.8244 144.4ZM78.1986 150.18H69.3986C69.4786 151.273 69.8986 152.16 70.6586 152.84C71.4186 153.507 72.3786 153.84 73.5386 153.84C74.1919 153.84 74.7919 153.727 75.3386 153.5C75.8853 153.26 76.3586 152.913 76.7586 152.46L77.5586 153.38C77.0919 153.94 76.5053 154.367 75.7986 154.66C75.1053 154.953 74.3386 155.1 73.4986 155.1C72.4186 155.1 71.4586 154.873 70.6186 154.42C69.7919 153.953 69.1453 153.313 68.6786 152.5C68.2119 151.687 67.9786 150.767 67.9786 149.74C67.9786 148.713 68.1986 147.793 68.6386 146.98C69.0919 146.167 69.7053 145.533 70.4786 145.08C71.2653 144.627 72.1453 144.4 73.1186 144.4C74.0919 144.4 74.9653 144.627 75.7386 145.08C76.5119 145.533 77.1186 146.167 77.5586 146.98C77.9986 147.78 78.2186 148.7 78.2186 149.74L78.1986 150.18ZM73.1186 145.62C72.1053 145.62 71.2519 145.947 70.5586 146.6C69.8786 147.24 69.4919 148.08 69.3986 149.12H76.8586C76.7653 148.08 76.3719 147.24 75.6786 146.6C74.9986 145.947 74.1453 145.62 73.1186 145.62ZM95.4633 147.78C96.3833 147.98 97.0899 148.38 97.5833 148.98C98.0899 149.567 98.3433 150.327 98.3433 151.26C98.3433 152.46 97.8966 153.387 97.0033 154.04C96.1233 154.68 94.8166 155 93.0833 155H86.6433V141H92.6833C94.2433 141 95.4499 141.313 96.3033 141.94C97.1699 142.567 97.6033 143.453 97.6033 144.6C97.6033 145.373 97.4099 146.033 97.0233 146.58C96.6499 147.113 96.1299 147.513 95.4633 147.78ZM88.1233 142.22V147.3H92.5833C93.7166 147.3 94.5899 147.087 95.2033 146.66C95.8166 146.22 96.1233 145.587 96.1233 144.76C96.1233 143.933 95.8166 143.307 95.2033 142.88C94.5899 142.44 93.7166 142.22 92.5833 142.22H88.1233ZM93.0633 153.78C94.3166 153.78 95.2633 153.567 95.9033 153.14C96.5433 152.713 96.8633 152.047 96.8633 151.14C96.8633 149.393 95.5966 148.52 93.0633 148.52H88.1233V153.78H93.0633ZM111.621 153.72V155H101.721V141H111.321V142.28H103.201V147.26H110.441V148.52H103.201V153.72H111.621ZM118.96 155.12C117.92 155.12 116.92 154.953 115.96 154.62C115.014 154.287 114.28 153.847 113.76 153.3L114.34 152.16C114.847 152.667 115.52 153.08 116.36 153.4C117.2 153.707 118.067 153.86 118.96 153.86C120.214 153.86 121.154 153.633 121.78 153.18C122.407 152.713 122.72 152.113 122.72 151.38C122.72 150.82 122.547 150.373 122.2 150.04C121.867 149.707 121.454 149.453 120.96 149.28C120.467 149.093 119.78 148.893 118.9 148.68C117.847 148.413 117.007 148.16 116.38 147.92C115.754 147.667 115.214 147.287 114.76 146.78C114.32 146.273 114.1 145.587 114.1 144.72C114.1 144.013 114.287 143.373 114.66 142.8C115.034 142.213 115.607 141.747 116.38 141.4C117.154 141.053 118.114 140.88 119.26 140.88C120.06 140.88 120.84 140.993 121.6 141.22C122.374 141.433 123.04 141.733 123.6 142.12L123.1 143.3C122.514 142.913 121.887 142.627 121.22 142.44C120.554 142.24 119.9 142.14 119.26 142.14C118.034 142.14 117.107 142.38 116.48 142.86C115.867 143.327 115.56 143.933 115.56 144.68C115.56 145.24 115.727 145.693 116.06 146.04C116.407 146.373 116.834 146.633 117.34 146.82C117.86 146.993 118.554 147.187 119.42 147.4C120.447 147.653 121.274 147.907 121.9 148.16C122.54 148.4 123.08 148.773 123.52 149.28C123.96 149.773 124.18 150.447 124.18 151.3C124.18 152.007 123.987 152.653 123.6 153.24C123.227 153.813 122.647 154.273 121.86 154.62C121.074 154.953 120.107 155.12 118.96 155.12ZM129.93 142.28H125.01V141H136.33V142.28H131.41V155H129.93V142.28ZM148.988 144.4C150.308 144.4 151.355 144.787 152.128 145.56C152.915 146.32 153.308 147.433 153.308 148.9V155H151.888V149.04C151.888 147.947 151.615 147.113 151.068 146.54C150.522 145.967 149.742 145.68 148.728 145.68C147.595 145.68 146.695 146.02 146.028 146.7C145.375 147.367 145.048 148.293 145.048 149.48V155H143.628V140.16H145.048V146.32C145.435 145.707 145.968 145.233 146.648 144.9C147.328 144.567 148.108 144.4 148.988 144.4ZM161.503 155.1C160.489 155.1 159.576 154.873 158.763 154.42C157.949 153.953 157.309 153.313 156.843 152.5C156.376 151.687 156.143 150.767 156.143 149.74C156.143 148.713 156.376 147.793 156.843 146.98C157.309 146.167 157.949 145.533 158.763 145.08C159.576 144.627 160.489 144.4 161.503 144.4C162.516 144.4 163.429 144.627 164.243 145.08C165.056 145.533 165.689 146.167 166.143 146.98C166.609 147.793 166.843 148.713 166.843 149.74C166.843 150.767 166.609 151.687 166.143 152.5C165.689 153.313 165.056 153.953 164.243 154.42C163.429 154.873 162.516 155.1 161.503 155.1ZM161.503 153.84C162.249 153.84 162.916 153.673 163.503 153.34C164.103 152.993 164.569 152.507 164.903 151.88C165.236 151.253 165.403 150.54 165.403 149.74C165.403 148.94 165.236 148.227 164.903 147.6C164.569 146.973 164.103 146.493 163.503 146.16C162.916 145.813 162.249 145.64 161.503 145.64C160.756 145.64 160.083 145.813 159.483 146.16C158.896 146.493 158.429 146.973 158.083 147.6C157.749 148.227 157.583 148.94 157.583 149.74C157.583 150.54 157.749 151.253 158.083 151.88C158.429 152.507 158.896 152.993 159.483 153.34C160.083 153.673 160.756 153.84 161.503 153.84ZM175.282 154.36C175.015 154.6 174.682 154.787 174.282 154.92C173.895 155.04 173.488 155.1 173.062 155.1C172.075 155.1 171.315 154.833 170.782 154.3C170.248 153.767 169.982 153.013 169.982 152.04V145.68H168.102V144.48H169.982V142.18H171.402V144.48H174.602V145.68H171.402V151.96C171.402 152.587 171.555 153.067 171.862 153.4C172.182 153.72 172.635 153.88 173.222 153.88C173.515 153.88 173.795 153.833 174.062 153.74C174.342 153.647 174.582 153.513 174.782 153.34L175.282 154.36ZM185.521 158.88C184.774 157.653 184.201 156.247 183.801 154.66C183.401 153.06 183.201 151.347 183.201 149.52C183.201 147.693 183.401 145.98 183.801 144.38C184.201 142.767 184.774 141.36 185.521 140.16H186.881C186.094 141.507 185.514 142.953 185.141 144.5C184.781 146.047 184.601 147.72 184.601 149.52C184.601 151.32 184.781 152.993 185.141 154.54C185.514 156.087 186.094 157.533 186.881 158.88H185.521ZM193.363 144.4C194.736 144.4 195.79 144.747 196.523 145.44C197.256 146.12 197.623 147.133 197.623 148.48V155H196.263V153.36C195.943 153.907 195.47 154.333 194.843 154.64C194.23 154.947 193.496 155.1 192.643 155.1C191.47 155.1 190.536 154.82 189.843 154.26C189.15 153.7 188.803 152.96 188.803 152.04C188.803 151.147 189.123 150.427 189.763 149.88C190.416 149.333 191.45 149.06 192.863 149.06H196.203V148.42C196.203 147.513 195.95 146.827 195.443 146.36C194.936 145.88 194.196 145.64 193.223 145.64C192.556 145.64 191.916 145.753 191.303 145.98C190.69 146.193 190.163 146.493 189.723 146.88L189.083 145.82C189.616 145.367 190.256 145.02 191.003 144.78C191.75 144.527 192.536 144.4 193.363 144.4ZM192.863 153.98C193.663 153.98 194.35 153.8 194.923 153.44C195.496 153.067 195.923 152.533 196.203 151.84V150.12H192.903C191.103 150.12 190.203 150.747 190.203 152C190.203 152.613 190.436 153.1 190.903 153.46C191.37 153.807 192.023 153.98 192.863 153.98ZM206.84 144.4C208.16 144.4 209.207 144.787 209.98 145.56C210.767 146.32 211.16 147.433 211.16 148.9V155H209.74V149.04C209.74 147.947 209.467 147.113 208.92 146.54C208.373 145.967 207.593 145.68 206.58 145.68C205.447 145.68 204.547 146.02 203.88 146.7C203.227 147.367 202.9 148.293 202.9 149.48V155H201.48V144.48H202.84V146.42C203.227 145.78 203.76 145.287 204.44 144.94C205.133 144.58 205.933 144.4 206.84 144.4ZM224.654 140.16V155H223.294V152.92C222.868 153.627 222.301 154.167 221.594 154.54C220.901 154.913 220.114 155.1 219.234 155.1C218.248 155.1 217.354 154.873 216.554 154.42C215.754 153.967 215.128 153.333 214.674 152.52C214.221 151.707 213.994 150.78 213.994 149.74C213.994 148.7 214.221 147.773 214.674 146.96C215.128 146.147 215.754 145.52 216.554 145.08C217.354 144.627 218.248 144.4 219.234 144.4C220.088 144.4 220.854 144.58 221.534 144.94C222.228 145.287 222.794 145.8 223.234 146.48V140.16H224.654ZM219.354 153.84C220.088 153.84 220.748 153.673 221.334 153.34C221.934 152.993 222.401 152.507 222.734 151.88C223.081 151.253 223.254 150.54 223.254 149.74C223.254 148.94 223.081 148.227 222.734 147.6C222.401 146.973 221.934 146.493 221.334 146.16C220.748 145.813 220.088 145.64 219.354 145.64C218.608 145.64 217.934 145.813 217.334 146.16C216.748 146.493 216.281 146.973 215.934 147.6C215.601 148.227 215.434 148.94 215.434 149.74C215.434 150.54 215.601 151.253 215.934 151.88C216.281 152.507 216.748 152.993 217.334 153.34C217.934 153.673 218.608 153.84 219.354 153.84ZM238.203 155.1C237.163 155.1 236.23 154.873 235.403 154.42C234.59 153.967 233.95 153.333 233.483 152.52C233.017 151.693 232.783 150.767 232.783 149.74C232.783 148.713 233.017 147.793 233.483 146.98C233.95 146.167 234.59 145.533 235.403 145.08C236.23 144.627 237.163 144.4 238.203 144.4C239.11 144.4 239.917 144.58 240.623 144.94C241.343 145.287 241.91 145.8 242.323 146.48L241.263 147.2C240.917 146.68 240.477 146.293 239.943 146.04C239.41 145.773 238.83 145.64 238.203 145.64C237.443 145.64 236.757 145.813 236.143 146.16C235.543 146.493 235.07 146.973 234.723 147.6C234.39 148.227 234.223 148.94 234.223 149.74C234.223 150.553 234.39 151.273 234.723 151.9C235.07 152.513 235.543 152.993 236.143 153.34C236.757 153.673 237.443 153.84 238.203 153.84C238.83 153.84 239.41 153.713 239.943 153.46C240.477 153.207 240.917 152.82 241.263 152.3L242.323 153.02C241.91 153.7 241.343 154.22 240.623 154.58C239.903 154.927 239.097 155.1 238.203 155.1ZM249.237 155.1C248.224 155.1 247.31 154.873 246.497 154.42C245.684 153.953 245.044 153.313 244.577 152.5C244.11 151.687 243.877 150.767 243.877 149.74C243.877 148.713 244.11 147.793 244.577 146.98C245.044 146.167 245.684 145.533 246.497 145.08C247.31 144.627 248.224 144.4 249.237 144.4C250.25 144.4 251.164 144.627 251.977 145.08C252.79 145.533 253.424 146.167 253.877 146.98C254.344 147.793 254.577 148.713 254.577 149.74C254.577 150.767 254.344 151.687 253.877 152.5C253.424 153.313 252.79 153.953 251.977 154.42C251.164 154.873 250.25 155.1 249.237 155.1ZM249.237 153.84C249.984 153.84 250.65 153.673 251.237 153.34C251.837 152.993 252.304 152.507 252.637 151.88C252.97 151.253 253.137 150.54 253.137 149.74C253.137 148.94 252.97 148.227 252.637 147.6C252.304 146.973 251.837 146.493 251.237 146.16C250.65 145.813 249.984 145.64 249.237 145.64C248.49 145.64 247.817 145.813 247.217 146.16C246.63 146.493 246.164 146.973 245.817 147.6C245.484 148.227 245.317 148.94 245.317 149.74C245.317 150.54 245.484 151.253 245.817 151.88C246.164 152.507 246.63 152.993 247.217 153.34C247.817 153.673 248.49 153.84 249.237 153.84ZM257.476 140.16H258.896V155H257.476V140.16ZM272.447 140.16V155H271.087V152.92C270.661 153.627 270.094 154.167 269.387 154.54C268.694 154.913 267.907 155.1 267.027 155.1C266.041 155.1 265.147 154.873 264.347 154.42C263.547 153.967 262.921 153.333 262.467 152.52C262.014 151.707 261.787 150.78 261.787 149.74C261.787 148.7 262.014 147.773 262.467 146.96C262.921 146.147 263.547 145.52 264.347 145.08C265.147 144.627 266.041 144.4 267.027 144.4C267.881 144.4 268.647 144.58 269.327 144.94C270.021 145.287 270.587 145.8 271.027 146.48V140.16H272.447ZM267.147 153.84C267.881 153.84 268.541 153.673 269.127 153.34C269.727 152.993 270.194 152.507 270.527 151.88C270.874 151.253 271.047 150.54 271.047 149.74C271.047 148.94 270.874 148.227 270.527 147.6C270.194 146.973 269.727 146.493 269.127 146.16C268.541 145.813 267.881 145.64 267.147 145.64C266.401 145.64 265.727 145.813 265.127 146.16C264.541 146.493 264.074 146.973 263.727 147.6C263.394 148.227 263.227 148.94 263.227 149.74C263.227 150.54 263.394 151.253 263.727 151.88C264.074 152.507 264.541 152.993 265.127 153.34C265.727 153.673 266.401 153.84 267.147 153.84ZM275.222 158.88C276.009 157.533 276.589 156.093 276.962 154.56C277.335 153.013 277.522 151.333 277.522 149.52C277.522 147.707 277.335 146.033 276.962 144.5C276.589 142.953 276.009 141.507 275.222 140.16H276.582C277.329 141.36 277.902 142.767 278.302 144.38C278.715 145.98 278.922 147.693 278.922 149.52C278.922 151.347 278.722 153.06 278.322 154.66C277.922 156.26 277.342 157.667 276.582 158.88H275.222ZM297.818 140.16V155H296.458V152.92C296.032 153.627 295.465 154.167 294.758 154.54C294.065 154.913 293.278 155.1 292.398 155.1C291.412 155.1 290.518 154.873 289.718 154.42C288.918 153.967 288.292 153.333 287.838 152.52C287.385 151.707 287.158 150.78 287.158 149.74C287.158 148.7 287.385 147.773 287.838 146.96C288.292 146.147 288.918 145.52 289.718 145.08C290.518 144.627 291.412 144.4 292.398 144.4C293.252 144.4 294.018 144.58 294.698 144.94C295.392 145.287 295.958 145.8 296.398 146.48V140.16H297.818ZM292.518 153.84C293.252 153.84 293.912 153.673 294.498 153.34C295.098 152.993 295.565 152.507 295.898 151.88C296.245 151.253 296.418 150.54 296.418 149.74C296.418 148.94 296.245 148.227 295.898 147.6C295.565 146.973 295.098 146.493 294.498 146.16C293.912 145.813 293.252 145.64 292.518 145.64C291.772 145.64 291.098 145.813 290.498 146.16C289.912 146.493 289.445 146.973 289.098 147.6C288.765 148.227 288.598 148.94 288.598 149.74C288.598 150.54 288.765 151.253 289.098 151.88C289.445 152.507 289.912 152.993 290.498 153.34C291.098 153.673 291.772 153.84 292.518 153.84ZM306.073 155.1C305.06 155.1 304.146 154.873 303.333 154.42C302.52 153.953 301.88 153.313 301.413 152.5C300.946 151.687 300.713 150.767 300.713 149.74C300.713 148.713 300.946 147.793 301.413 146.98C301.88 146.167 302.52 145.533 303.333 145.08C304.146 144.627 305.06 144.4 306.073 144.4C307.086 144.4 308 144.627 308.813 145.08C309.626 145.533 310.26 146.167 310.713 146.98C311.18 147.793 311.413 148.713 311.413 149.74C311.413 150.767 311.18 151.687 310.713 152.5C310.26 153.313 309.626 153.953 308.813 154.42C308 154.873 307.086 155.1 306.073 155.1ZM306.073 153.84C306.82 153.84 307.486 153.673 308.073 153.34C308.673 152.993 309.14 152.507 309.473 151.88C309.806 151.253 309.973 150.54 309.973 149.74C309.973 148.94 309.806 148.227 309.473 147.6C309.14 146.973 308.673 146.493 308.073 146.16C307.486 145.813 306.82 145.64 306.073 145.64C305.326 145.64 304.653 145.813 304.053 146.16C303.466 146.493 303 146.973 302.653 147.6C302.32 148.227 302.153 148.94 302.153 149.74C302.153 150.54 302.32 151.253 302.653 151.88C303 152.507 303.466 152.993 304.053 153.34C304.653 153.673 305.326 153.84 306.073 153.84ZM324.052 144.48V153.72C324.052 155.507 323.612 156.827 322.732 157.68C321.865 158.547 320.552 158.98 318.792 158.98C317.819 158.98 316.892 158.833 316.012 158.54C315.145 158.26 314.439 157.867 313.892 157.36L314.612 156.28C315.119 156.733 315.732 157.087 316.452 157.34C317.185 157.593 317.952 157.72 318.752 157.72C320.085 157.72 321.065 157.407 321.692 156.78C322.319 156.167 322.632 155.207 322.632 153.9V152.56C322.192 153.227 321.612 153.733 320.892 154.08C320.185 154.427 319.399 154.6 318.532 154.6C317.545 154.6 316.645 154.387 315.832 153.96C315.032 153.52 314.399 152.913 313.932 152.14C313.479 151.353 313.252 150.467 313.252 149.48C313.252 148.493 313.479 147.613 313.932 146.84C314.399 146.067 315.032 145.467 315.832 145.04C316.632 144.613 317.532 144.4 318.532 144.4C319.425 144.4 320.232 144.58 320.952 144.94C321.672 145.3 322.252 145.82 322.692 146.5V144.48H324.052ZM318.672 153.34C319.432 153.34 320.119 153.18 320.732 152.86C321.345 152.527 321.819 152.067 322.152 151.48C322.499 150.893 322.672 150.227 322.672 149.48C322.672 148.733 322.499 148.073 322.152 147.5C321.819 146.913 321.345 146.46 320.732 146.14C320.132 145.807 319.445 145.64 318.672 145.64C317.912 145.64 317.225 145.8 316.612 146.12C316.012 146.44 315.539 146.893 315.192 147.48C314.859 148.067 314.692 148.733 314.692 149.48C314.692 150.227 314.859 150.893 315.192 151.48C315.539 152.067 316.012 152.527 316.612 152.86C317.225 153.18 317.912 153.34 318.672 153.34ZM343.457 153.72V155H333.557V141H343.157V142.28H335.037V147.26H342.277V148.52H335.037V153.72H343.457ZM358.381 141L352.181 155H350.721L344.521 141H346.121L351.481 153.16L356.881 141H358.381ZM370.313 153.72V155H360.413V141H370.013V142.28H361.893V147.26H369.133V148.52H361.893V153.72H370.313ZM383.352 155L380.152 150.5C379.792 150.54 379.418 150.56 379.032 150.56H375.272V155H373.792V141H379.032C380.818 141 382.218 141.427 383.232 142.28C384.245 143.133 384.752 144.307 384.752 145.8C384.752 146.893 384.472 147.82 383.912 148.58C383.365 149.327 382.578 149.867 381.552 150.2L384.972 155H383.352ZM378.992 149.3C380.378 149.3 381.438 148.993 382.172 148.38C382.905 147.767 383.272 146.907 383.272 145.8C383.272 144.667 382.905 143.8 382.172 143.2C381.438 142.587 380.378 142.28 378.992 142.28H375.272V149.3H378.992ZM387.725 141H389.405L389.105 150.8H388.005L387.725 141ZM388.565 155.1C388.272 155.1 388.018 155 387.805 154.8C387.605 154.587 387.505 154.34 387.505 154.06C387.505 153.767 387.605 153.527 387.805 153.34C388.005 153.14 388.258 153.04 388.565 153.04C388.858 153.04 389.105 153.14 389.305 153.34C389.505 153.527 389.605 153.767 389.605 154.06C389.605 154.34 389.505 154.587 389.305 154.8C389.105 155 388.858 155.1 388.565 155.1ZM392.92 141H394.6L394.3 150.8H393.2L392.92 141ZM393.76 155.1C393.467 155.1 393.213 155 393 154.8C392.8 154.587 392.7 154.34 392.7 154.06C392.7 153.767 392.8 153.527 393 153.34C393.2 153.14 393.453 153.04 393.76 153.04C394.053 153.04 394.3 153.14 394.5 153.34C394.7 153.527 394.8 153.767 394.8 154.06C394.8 154.34 394.7 154.587 394.5 154.8C394.3 155 394.053 155.1 393.76 155.1ZM398.115 141H399.795L399.495 150.8H398.395L398.115 141ZM398.955 155.1C398.662 155.1 398.409 155 398.195 154.8C397.995 154.587 397.895 154.34 397.895 154.06C397.895 153.767 397.995 153.527 398.195 153.34C398.395 153.14 398.649 153.04 398.955 153.04C399.249 153.04 399.495 153.14 399.695 153.34C399.895 153.527 399.995 153.767 399.995 154.06C399.995 154.34 399.895 154.587 399.695 154.8C399.495 155 399.249 155.1 398.955 155.1Z" fill="black"/>
<path d="M57.024 93.368C57.024 94.456 53.792 95 47.328 95C40.864 95 37.632 94.456 37.632 93.368V71.288H24.192V93.368C24.192 94.456 20.96 95 14.496 95C8.032 95 4.8 94.456 4.8 93.368V29.72C4.8 28.376 8.032 27.704 14.496 27.704C20.96 27.704 24.192 28.376 24.192 29.72V52.28H37.632V29.912C37.632 29.016 39.232 28.376 42.432 27.992C44.096 27.864 45.728 27.8 47.328 27.8L52.224 27.992C55.424 28.376 57.024 29.016 57.024 29.912V93.368ZM70.2293 89.336C66.2613 84.92 64.2773 78.808 64.2773 71C64.2773 63.192 66.2613 57.08 70.2293 52.664C74.2613 48.248 79.6693 46.04 86.4532 46.04C93.2373 46.04 98.6133 48.248 102.581 52.664C106.549 57.08 108.533 63.192 108.533 71C108.533 78.808 106.549 84.92 102.581 89.336C98.6133 93.752 93.2373 95.96 86.4532 95.96C79.6693 95.96 74.2613 93.752 70.2293 89.336ZM86.4532 62.072C82.8693 62.072 81.0773 65.016 81.0773 70.904C81.0773 76.792 82.8693 79.736 86.4532 79.736C90.1013 79.736 91.9253 76.792 91.9253 70.904C91.9253 65.016 90.1013 62.072 86.4532 62.072ZM137.4 94.424C137.4 95.192 134.712 95.576 129.336 95.576C122.936 95.32 119.736 94.904 119.736 94.328V60.344H114.84C113.56 60.344 112.92 58.136 112.92 53.72C112.92 52.568 113.016 51.16 113.208 49.496C113.464 47.832 113.944 47 114.648 47H119.736V38.552C119.736 37.272 122.424 36.632 127.8 36.632C133.24 36.632 135.96 37.144 135.96 38.168V44.312L136.056 47H144.216C145.304 47 145.848 49.24 145.848 53.72C145.848 58.2 145.304 60.44 144.216 60.44H137.4V94.424ZM174.952 28.376C174.952 27.416 177.48 26.936 182.536 26.936C184.264 26.936 186.248 27.064 188.488 27.32C190.792 27.512 191.944 27.8 191.944 28.184V78.776H195.304C196.904 78.776 197.96 80.216 198.472 83.096C198.6 83.928 198.664 85.08 198.664 86.552C198.664 87.96 198.216 89.688 197.32 91.736C196.04 94.552 193.992 95.96 191.176 95.96C189.064 95.96 187.176 95.544 185.512 94.712C183.912 93.88 182.824 93.016 182.248 92.12L181.384 90.872C177.864 94.264 173.448 95.96 168.136 95.96C162.824 95.96 158.28 93.752 154.504 89.336C150.728 84.92 148.84 78.776 148.84 70.904C148.84 62.968 150.824 56.856 154.792 52.568C158.76 48.216 163.72 46.04 169.672 46.04C171.4 46.04 173.16 46.232 174.952 46.616V28.376ZM171.784 61.4C168.2 61.4 166.408 64.632 166.408 71.096C166.408 74.36 166.92 76.728 167.944 78.2C168.968 79.608 170.088 80.312 171.304 80.312C172.584 80.312 173.8 79.768 174.952 78.68V62.36C173.864 61.72 172.808 61.4 171.784 61.4ZM209.073 89.336C205.105 84.92 203.121 78.808 203.121 71C203.121 63.192 205.105 57.08 209.073 52.664C213.105 48.248 218.513 46.04 225.297 46.04C232.081 46.04 237.457 48.248 241.425 52.664C245.393 57.08 247.377 63.192 247.377 71C247.377 78.808 245.393 84.92 241.425 89.336C237.457 93.752 232.081 95.96 225.297 95.96C218.513 95.96 213.105 93.752 209.073 89.336ZM225.297 62.072C221.713 62.072 219.921 65.016 219.921 70.904C219.921 76.792 221.713 79.736 225.297 79.736C228.945 79.736 230.769 76.792 230.769 70.904C230.769 65.016 228.945 62.072 225.297 62.072ZM271.828 95C265.62 95 260.82 93.016 257.428 89.048C254.036 85.016 252.34 79.096 252.34 71.288C252.34 63.416 254.548 57.272 258.964 52.856C263.444 48.376 269.364 46.136 276.724 46.136C284.148 46.136 290.26 47.768 295.06 51.032V98.84C295.06 103.576 293.14 107.192 289.3 109.688C285.46 112.248 280.532 113.528 274.516 113.528C268.5 113.528 263.124 112.76 258.388 111.224C257.748 109.688 257.428 108.312 257.428 107.096C257.428 103 258.1 99.992 259.444 98.072C263.732 99.928 268.308 100.856 273.172 100.856C276.692 100.856 278.452 99.608 278.452 97.112V94.232C275.7 94.744 273.492 95 271.828 95ZM276.244 61.784C271.956 61.784 269.812 65.016 269.812 71.48C269.812 75.512 270.644 78.136 272.308 79.352C273.396 80.184 274.484 80.6 275.572 80.6C276.66 80.6 277.62 80.504 278.452 80.312V62.072C277.684 61.88 276.948 61.784 276.244 61.784ZM305.68 77.72C310.864 80.856 314.96 82.424 317.968 82.424C319.888 82.424 320.848 81.752 320.848 80.408C320.848 79.448 319.184 78.2 315.856 76.664C307.856 73.4 303.856 68.056 303.856 60.632C303.856 55.896 305.584 52.28 309.04 49.784C312.496 47.288 316.624 46.04 321.424 46.04C326.288 46.04 330.384 46.552 333.712 47.576C337.104 48.6 338.8 49.944 338.8 51.608C338.8 53.016 338.096 54.872 336.688 57.176C335.344 59.48 334.416 60.728 333.904 60.92C331.152 59.384 328.176 58.616 324.976 58.616C323.248 58.616 322.384 59.224 322.384 60.44C322.384 61.208 322.704 61.88 323.344 62.456C324.048 62.968 325.296 63.64 327.088 64.472C328.88 65.24 330.352 65.944 331.504 66.584C332.72 67.224 334.064 68.12 335.536 69.272C338.608 71.704 340.144 74.872 340.144 78.776C340.144 83.896 338.448 88.056 335.056 91.256C331.664 94.392 326.544 95.96 319.696 95.96C315.152 95.96 311.024 95.192 307.312 93.656C303.6 92.12 301.744 90.008 301.744 87.32C301.744 85.528 302.16 83.64 302.992 81.656C303.888 79.672 304.784 78.36 305.68 77.72ZM351.011 89.336C347.043 84.92 345.059 78.808 345.059 71C345.059 63.192 347.043 57.08 351.011 52.664C355.043 48.248 360.451 46.04 367.234 46.04C374.019 46.04 379.395 48.248 383.363 52.664C387.331 57.08 389.315 63.192 389.315 71C389.315 78.808 387.331 84.92 383.363 89.336C379.395 93.752 374.019 95.96 367.234 95.96C360.451 95.96 355.043 93.752 351.011 89.336ZM367.234 62.072C363.651 62.072 361.859 65.016 361.859 70.904C361.859 76.792 363.651 79.736 367.234 79.736C370.883 79.736 372.707 76.792 372.707 70.904C372.707 65.016 370.883 62.072 367.234 62.072ZM416.165 94.424C416.165 94.872 413.861 95.096 409.253 95.096C402.853 94.904 399.653 94.552 399.653 94.04V62.936H397.157C395.493 62.936 394.405 61.528 393.893 58.712C393.765 57.88 393.701 57.048 393.701 56.216C393.701 54.232 394.085 52.248 394.853 50.264C396.005 47.448 397.797 46.04 400.229 46.04C402.661 46.04 404.837 46.616 406.757 47.768C408.677 48.92 409.957 50.072 410.597 51.224C414.629 47.768 419.429 46.04 424.997 46.04C430.565 46.04 434.597 47.544 437.093 50.552C439.589 53.56 440.837 58.488 440.837 65.336V94.136C440.837 94.904 438.085 95.288 432.581 95.288C427.141 95.288 424.421 94.904 424.421 94.136V66.392C424.421 63.192 423.301 61.592 421.061 61.592C420.421 61.592 419.525 61.88 418.373 62.456C417.221 62.968 416.485 63.352 416.165 63.608V94.424Z" fill="black"/>
<path d="M57.024 87.368C57.024 88.456 53.792 89 47.328 89C40.864 89 37.632 88.456 37.632 87.368V65.288H24.192V87.368C24.192 88.456 20.96 89 14.496 89C8.032 89 4.8 88.456 4.8 87.368V23.72C4.8 22.376 8.032 21.704 14.496 21.704C20.96 21.704 24.192 22.376 24.192 23.72V46.28H37.632V23.912C37.632 23.016 39.232 22.376 42.432 21.992C44.096 21.864 45.728 21.8 47.328 21.8L52.224 21.992C55.424 22.376 57.024 23.016 57.024 23.912V87.368ZM70.2293 83.336C66.2613 78.92 64.2773 72.808 64.2773 65C64.2773 57.192 66.2613 51.08 70.2293 46.664C74.2613 42.248 79.6693 40.04 86.4532 40.04C93.2373 40.04 98.6133 42.248 102.581 46.664C106.549 51.08 108.533 57.192 108.533 65C108.533 72.808 106.549 78.92 102.581 83.336C98.6133 87.752 93.2373 89.96 86.4532 89.96C79.6693 89.96 74.2613 87.752 70.2293 83.336ZM86.4532 56.072C82.8693 56.072 81.0773 59.016 81.0773 64.904C81.0773 70.792 82.8693 73.736 86.4532 73.736C90.1013 73.736 91.9253 70.792 91.9253 64.904C91.9253 59.016 90.1013 56.072 86.4532 56.072ZM137.4 88.424C137.4 89.192 134.712 89.576 129.336 89.576C122.936 89.32 119.736 88.904 119.736 88.328V54.344H114.84C113.56 54.344 112.92 52.136 112.92 47.72C112.92 46.568 113.016 45.16 113.208 43.496C113.464 41.832 113.944 41 114.648 41H119.736V32.552C119.736 31.272 122.424 30.632 127.8 30.632C133.24 30.632 135.96 31.144 135.96 32.168V38.312L136.056 41H144.216C145.304 41 145.848 43.24 145.848 47.72C145.848 52.2 145.304 54.44 144.216 54.44H137.4V88.424ZM174.952 22.376C174.952 21.416 177.48 20.936 182.536 20.936C184.264 20.936 186.248 21.064 188.488 21.32C190.792 21.512 191.944 21.8 191.944 22.184V72.776H195.304C196.904 72.776 197.96 74.216 198.472 77.096C198.6 77.928 198.664 79.08 198.664 80.552C198.664 81.96 198.216 83.688 197.32 85.736C196.04 88.552 193.992 89.96 191.176 89.96C189.064 89.96 187.176 89.544 185.512 88.712C183.912 87.88 182.824 87.016 182.248 86.12L181.384 84.872C177.864 88.264 173.448 89.96 168.136 89.96C162.824 89.96 158.28 87.752 154.504 83.336C150.728 78.92 148.84 72.776 148.84 64.904C148.84 56.968 150.824 50.856 154.792 46.568C158.76 42.216 163.72 40.04 169.672 40.04C171.4 40.04 173.16 40.232 174.952 40.616V22.376ZM171.784 55.4C168.2 55.4 166.408 58.632 166.408 65.096C166.408 68.36 166.92 70.728 167.944 72.2C168.968 73.608 170.088 74.312 171.304 74.312C172.584 74.312 173.8 73.768 174.952 72.68V56.36C173.864 55.72 172.808 55.4 171.784 55.4ZM209.073 83.336C205.105 78.92 203.121 72.808 203.121 65C203.121 57.192 205.105 51.08 209.073 46.664C213.105 42.248 218.513 40.04 225.297 40.04C232.081 40.04 237.457 42.248 241.425 46.664C245.393 51.08 247.377 57.192 247.377 65C247.377 72.808 245.393 78.92 241.425 83.336C237.457 87.752 232.081 89.96 225.297 89.96C218.513 89.96 213.105 87.752 209.073 83.336ZM225.297 56.072C221.713 56.072 219.921 59.016 219.921 64.904C219.921 70.792 221.713 73.736 225.297 73.736C228.945 73.736 230.769 70.792 230.769 64.904C230.769 59.016 228.945 56.072 225.297 56.072ZM271.828 89C265.62 89 260.82 87.016 257.428 83.048C254.036 79.016 252.34 73.096 252.34 65.288C252.34 57.416 254.548 51.272 258.964 46.856C263.444 42.376 269.364 40.136 276.724 40.136C284.148 40.136 290.26 41.768 295.06 45.032V92.84C295.06 97.576 293.14 101.192 289.3 103.688C285.46 106.248 280.532 107.528 274.516 107.528C268.5 107.528 263.124 106.76 258.388 105.224C257.748 103.688 257.428 102.312 257.428 101.096C257.428 97 258.1 93.992 259.444 92.072C263.732 93.928 268.308 94.856 273.172 94.856C276.692 94.856 278.452 93.608 278.452 91.112V88.232C275.7 88.744 273.492 89 271.828 89ZM276.244 55.784C271.956 55.784 269.812 59.016 269.812 65.48C269.812 69.512 270.644 72.136 272.308 73.352C273.396 74.184 274.484 74.6 275.572 74.6C276.66 74.6 277.62 74.504 278.452 74.312V56.072C277.684 55.88 276.948 55.784 276.244 55.784ZM305.68 71.72C310.864 74.856 314.96 76.424 317.968 76.424C319.888 76.424 320.848 75.752 320.848 74.408C320.848 73.448 319.184 72.2 315.856 70.664C307.856 67.4 303.856 62.056 303.856 54.632C303.856 49.896 305.584 46.28 309.04 43.784C312.496 41.288 316.624 40.04 321.424 40.04C326.288 40.04 330.384 40.552 333.712 41.576C337.104 42.6 338.8 43.944 338.8 45.608C338.8 47.016 338.096 48.872 336.688 51.176C335.344 53.48 334.416 54.728 333.904 54.92C331.152 53.384 328.176 52.616 324.976 52.616C323.248 52.616 322.384 53.224 322.384 54.44C322.384 55.208 322.704 55.88 323.344 56.456C324.048 56.968 325.296 57.64 327.088 58.472C328.88 59.24 330.352 59.944 331.504 60.584C332.72 61.224 334.064 62.12 335.536 63.272C338.608 65.704 340.144 68.872 340.144 72.776C340.144 77.896 338.448 82.056 335.056 85.256C331.664 88.392 326.544 89.96 319.696 89.96C315.152 89.96 311.024 89.192 307.312 87.656C303.6 86.12 301.744 84.008 301.744 81.32C301.744 79.528 302.16 77.64 302.992 75.656C303.888 73.672 304.784 72.36 305.68 71.72ZM351.011 83.336C347.043 78.92 345.059 72.808 345.059 65C345.059 57.192 347.043 51.08 351.011 46.664C355.043 42.248 360.451 40.04 367.234 40.04C374.019 40.04 379.395 42.248 383.363 46.664C387.331 51.08 389.315 57.192 389.315 65C389.315 72.808 387.331 78.92 383.363 83.336C379.395 87.752 374.019 89.96 367.234 89.96C360.451 89.96 355.043 87.752 351.011 83.336ZM367.234 56.072C363.651 56.072 361.859 59.016 361.859 64.904C361.859 70.792 363.651 73.736 367.234 73.736C370.883 73.736 372.707 70.792 372.707 64.904C372.707 59.016 370.883 56.072 367.234 56.072ZM416.165 88.424C416.165 88.872 413.861 89.096 409.253 89.096C402.853 88.904 399.653 88.552 399.653 88.04V56.936H397.157C395.493 56.936 394.405 55.528 393.893 52.712C393.765 51.88 393.701 51.048 393.701 50.216C393.701 48.232 394.085 46.248 394.853 44.264C396.005 41.448 397.797 40.04 400.229 40.04C402.661 40.04 404.837 40.616 406.757 41.768C408.677 42.92 409.957 44.072 410.597 45.224C414.629 41.768 419.429 40.04 424.997 40.04C430.565 40.04 434.597 41.544 437.093 44.552C439.589 47.56 440.837 52.488 440.837 59.336V88.136C440.837 88.904 438.085 89.288 432.581 89.288C427.141 89.288 424.421 88.904 424.421 88.136V60.392C424.421 57.192 423.301 55.592 421.061 55.592C420.421 55.592 419.525 55.88 418.373 56.456C417.221 56.968 416.485 57.352 416.165 57.608V88.424Z" fill="#F99C73"/>
<path d="M37.632 65.288H38.632V64.288H37.632V65.288ZM24.192 65.288V64.288H23.192V65.288H24.192ZM24.192 46.28H23.192V47.28H24.192V46.28ZM37.632 46.28V47.28H38.632V46.28H37.632ZM42.432 21.992L42.3553 20.9949L42.334 20.9966L42.3129 20.9991L42.432 21.992ZM47.328 21.8L47.3672 20.8008L47.3476 20.8H47.328V21.8ZM52.224 21.992L52.3431 20.9991L52.3033 20.9943L52.2632 20.9928L52.224 21.992ZM56.024 87.368C56.024 87.0548 56.2725 87.0352 55.9673 87.1893C55.6979 87.3253 55.2094 87.4754 54.434 87.6059C52.903 87.8636 50.5469 88 47.328 88V90C50.5731 90 53.065 89.8644 54.766 89.5781C55.6066 89.4366 56.3301 89.2467 56.8687 88.9747C57.3715 88.7208 58.024 88.2253 58.024 87.368H56.024ZM47.328 88C44.1091 88 41.753 87.8636 40.222 87.6059C39.4466 87.4754 38.9581 87.3253 38.6887 87.1893C38.3835 87.0352 38.632 87.0548 38.632 87.368H36.632C36.632 88.2253 37.2845 88.7208 37.7873 88.9747C38.3259 89.2467 39.0494 89.4366 39.89 89.5781C41.591 89.8644 44.0829 90 47.328 90V88ZM38.632 87.368V65.288H36.632V87.368H38.632ZM37.632 64.288H24.192V66.288H37.632V64.288ZM23.192 65.288V87.368H25.192V65.288H23.192ZM23.192 87.368C23.192 87.0548 23.4405 87.0352 23.1353 87.1893C22.8659 87.3253 22.3774 87.4754 21.602 87.6059C20.071 87.8636 17.7149 88 14.496 88V90C17.7411 90 20.233 89.8644 21.934 89.5781C22.7746 89.4366 23.4981 89.2467 24.0367 88.9747C24.5395 88.7208 25.192 88.2253 25.192 87.368H23.192ZM14.496 88C11.2771 88 8.92098 87.8636 7.38998 87.6059C6.61462 87.4754 6.12607 87.3253 5.85675 87.1893C5.55152 87.0352 5.8 87.0548 5.8 87.368H3.8C3.8 88.2253 4.45248 88.7208 4.95525 88.9747C5.49393 89.2467 6.21738 89.4366 7.05802 89.5781C8.75902 89.8644 11.2509 90 14.496 90V88ZM5.8 87.368V23.72H3.8V87.368H5.8ZM5.8 23.72C5.8 23.8619 5.69013 23.8394 5.93524 23.6865C6.19171 23.5265 6.66317 23.346 7.42757 23.1871C8.93998 22.8726 11.2805 22.704 14.496 22.704V20.704C11.2475 20.704 8.74002 20.8714 7.02043 21.2289C6.16883 21.406 5.42829 21.6455 4.87676 21.9895C4.31387 22.3406 3.8 22.9061 3.8 23.72H5.8ZM14.496 22.704C17.7115 22.704 20.052 22.8726 21.5644 23.1871C22.3288 23.346 22.8003 23.5265 23.0568 23.6865C23.3019 23.8394 23.192 23.8619 23.192 23.72H25.192C25.192 22.9061 24.6781 22.3406 24.1152 21.9895C23.5637 21.6455 22.8232 21.406 21.9716 21.2289C20.252 20.8714 17.7445 20.704 14.496 20.704V22.704ZM23.192 23.72V46.28H25.192V23.72H23.192ZM24.192 47.28H37.632V45.28H24.192V47.28ZM38.632 46.28V23.912H36.632V46.28H38.632ZM38.632 23.912C38.632 24.0224 38.5712 24.0606 38.6245 24.0094C38.6949 23.9418 38.8638 23.8243 39.2034 23.6885C39.8803 23.4177 40.9765 23.1738 42.5511 22.9849L42.3129 20.9991C40.6875 21.1942 39.3837 21.4623 38.4606 21.8315C38.0002 22.0157 37.5691 22.2502 37.2395 22.5666C36.8928 22.8994 36.632 23.3536 36.632 23.912H38.632ZM42.5087 22.9891C44.1483 22.8629 45.7547 22.8 47.328 22.8V20.8C45.7013 20.8 44.0437 20.8651 42.3553 20.9949L42.5087 22.9891ZM47.2888 22.7992L52.1848 22.9912L52.2632 20.9928L47.3672 20.8008L47.2888 22.7992ZM52.1049 22.9849C53.6795 23.1738 54.7757 23.4177 55.4526 23.6885C55.7922 23.8243 55.9611 23.9418 56.0315 24.0094C56.0848 24.0606 56.024 24.0224 56.024 23.912H58.024C58.024 23.3536 57.7632 22.8994 57.4165 22.5666C57.0869 22.2502 56.6558 22.0157 56.1954 21.8315C55.2723 21.4623 53.9685 21.1942 52.3431 20.9991L52.1049 22.9849ZM56.024 23.912V87.368H58.024V23.912H56.024ZM70.2292 83.336L69.4854 84.0044L69.4908 84.0103L70.2292 83.336ZM70.2292 46.664L69.4907 45.9897L69.4854 45.9956L70.2292 46.664ZM102.581 46.664L101.837 47.3324L102.581 46.664ZM102.581 83.336L101.837 82.6676L102.581 83.336ZM70.9731 82.6676C67.2164 78.4868 65.2773 72.6407 65.2773 65H63.2772C63.2772 72.9753 65.3061 79.3532 69.4854 84.0044L70.9731 82.6676ZM65.2773 65C65.2773 57.3593 67.2164 51.5132 70.9731 47.3324L69.4854 45.9956C65.3061 50.6468 63.2772 57.0247 63.2772 65H65.2773ZM70.9677 47.3383C74.7838 43.1587 79.9085 41.04 86.4532 41.04V39.04C79.43 39.04 73.7387 41.3373 69.4908 45.9897L70.9677 47.3383ZM86.4532 41.04C92.9983 41.04 98.0871 43.1586 101.837 47.3324L103.325 45.9956C99.1394 41.3374 93.4762 39.04 86.4532 39.04V41.04ZM101.837 47.3324C105.594 51.5132 107.533 57.3593 107.533 65H109.533C109.533 57.0247 107.504 50.6468 103.325 45.9956L101.837 47.3324ZM107.533 65C107.533 72.6407 105.594 78.4868 101.837 82.6676L103.325 84.0044C107.504 79.3532 109.533 72.9753 109.533 65H107.533ZM101.837 82.6676C98.0871 86.8414 92.9983 88.96 86.4532 88.96V90.96C93.4762 90.96 99.1394 88.6626 103.325 84.0044L101.837 82.6676ZM86.4532 88.96C79.9085 88.96 74.7838 86.8413 70.9677 82.6617L69.4908 84.0103C73.7387 88.6627 79.43 90.96 86.4532 90.96V88.96ZM86.4532 55.072C84.3292 55.072 82.6532 55.9757 81.5671 57.7601C80.5299 59.4639 80.0772 61.8911 80.0772 64.904H82.0772C82.0772 62.0289 82.5206 60.0401 83.2755 58.7999C83.9813 57.6403 84.9933 57.072 86.4532 57.072V55.072ZM80.0772 64.904C80.0772 67.9169 80.5299 70.3441 81.5671 72.0479C82.6532 73.8323 84.3292 74.736 86.4532 74.736V72.736C84.9933 72.736 83.9813 72.1677 83.2755 71.008C82.5206 69.7679 82.0772 67.7791 82.0772 64.904H80.0772ZM86.4532 74.736C88.6011 74.736 90.3015 73.8395 91.4073 72.0547C92.4641 70.349 92.9252 67.9188 92.9252 64.904H90.9252C90.9252 67.7772 90.4744 69.763 89.7072 71.0013C88.989 72.1605 87.9534 72.736 86.4532 72.736V74.736ZM92.9252 64.904C92.9252 61.8892 92.4641 59.459 91.4073 57.7533C90.3015 55.9685 88.6011 55.072 86.4532 55.072V57.072C87.9534 57.072 88.989 57.6475 89.7072 58.8067C90.4744 60.045 90.9252 62.0308 90.9252 64.904H92.9252ZM129.336 89.576L129.296 90.5752L129.316 90.576H129.336V89.576ZM119.736 54.344H120.736V53.344H119.736V54.344ZM113.208 43.496L112.22 43.3439L112.217 43.3626L112.215 43.3814L113.208 43.496ZM119.736 41V42H120.736V41H119.736ZM135.96 38.312H134.96V38.3299L134.961 38.3477L135.96 38.312ZM136.056 41L135.057 41.0357L135.091 42H136.056V41ZM137.4 54.44V53.44H136.4V54.44H137.4ZM136.4 88.424C136.4 87.9443 136.811 87.8764 136.502 88.0089C136.288 88.1004 135.888 88.2058 135.243 88.298C133.971 88.4797 132.013 88.576 129.336 88.576V90.576C132.035 90.576 134.109 90.4803 135.525 90.2779C136.224 90.1782 136.832 90.0436 137.29 89.8471C137.653 89.6916 138.4 89.2877 138.4 88.424H136.4ZM129.376 88.5768C126.183 88.4491 123.819 88.2824 122.265 88.0803C121.48 87.9783 120.948 87.8729 120.632 87.7748C120.467 87.7237 120.424 87.6934 120.443 87.7057C120.455 87.7137 120.519 87.7574 120.585 87.8501C120.659 87.9525 120.736 88.1171 120.736 88.328H118.736C118.736 88.9094 119.14 89.2405 119.329 89.3673C119.548 89.5136 119.805 89.6123 120.04 89.6852C120.524 89.8351 121.192 89.9577 122.007 90.0637C123.653 90.2776 126.089 90.4469 129.296 90.5752L129.376 88.5768ZM120.736 88.328V54.344H118.736V88.328H120.736ZM119.736 53.344H114.84V55.344H119.736V53.344ZM114.84 53.344C114.832 53.344 114.83 53.3433 114.832 53.3436C114.833 53.3439 114.834 53.3443 114.832 53.3435C114.83 53.3424 114.802 53.3286 114.755 53.2738C114.649 53.1521 114.501 52.8934 114.36 52.4096C114.081 51.4448 113.92 49.9035 113.92 47.72H111.92C111.92 49.9525 112.079 51.7232 112.44 52.9664C112.619 53.5865 112.871 54.1559 113.245 54.5862C113.645 55.0459 114.188 55.344 114.84 55.344V53.344ZM113.92 47.72C113.92 46.6192 114.012 45.252 114.201 43.6106L112.215 43.3814C112.02 45.068 111.92 46.5168 111.92 47.72H113.92ZM114.196 43.6481C114.318 42.8605 114.478 42.3805 114.626 42.1237C114.761 41.8899 114.779 42 114.648 42V40C113.813 40 113.239 40.5261 112.894 41.1243C112.562 41.6995 112.354 42.4675 112.22 43.3439L114.196 43.6481ZM114.648 42H119.736V40H114.648V42ZM120.736 41V32.552H118.736V41H120.736ZM120.736 32.552C120.736 32.6464 120.664 32.6384 120.821 32.5257C121.005 32.3948 121.364 32.2323 121.984 32.0848C123.21 31.7927 125.131 31.632 127.8 31.632V29.632C125.093 29.632 122.982 29.7913 121.52 30.1392C120.796 30.3117 120.147 30.5492 119.659 30.8983C119.144 31.2656 118.736 31.8176 118.736 32.552H120.736ZM127.8 31.632C130.505 31.632 132.469 31.7605 133.735 31.9987C134.377 32.1196 134.76 32.255 134.958 32.3668C135.163 32.4824 134.96 32.4395 134.96 32.168H136.96C136.96 31.3845 136.417 30.8936 135.942 30.6252C135.46 30.353 134.823 30.1684 134.105 30.0333C132.651 29.7595 130.535 29.632 127.8 29.632V31.632ZM134.96 32.168V38.312H136.96V32.168H134.96ZM134.961 38.3477L135.057 41.0357L137.055 40.9643L136.959 38.2763L134.961 38.3477ZM136.056 42H144.216V40H136.056V42ZM144.216 42C144.082 42 144.049 41.9089 144.122 42.0089C144.214 42.1356 144.345 42.4099 144.468 42.916C144.711 43.9167 144.848 45.4998 144.848 47.72H146.848C146.848 45.4602 146.713 43.6833 146.412 42.444C146.263 41.8301 146.054 41.2644 145.738 40.8311C145.403 40.3711 144.894 40 144.216 40V42ZM144.848 47.72C144.848 49.9402 144.711 51.5233 144.468 52.524C144.345 53.0301 144.214 53.3044 144.122 53.4311C144.049 53.5311 144.082 53.44 144.216 53.44V55.44C144.894 55.44 145.403 55.0689 145.738 54.6089C146.054 54.1756 146.263 53.6099 146.412 52.996C146.713 51.7567 146.848 49.9798 146.848 47.72H144.848ZM144.216 53.44H137.4V55.44H144.216V53.44ZM136.4 54.44V88.424H138.4V54.44H136.4ZM188.488 21.32L188.374 22.3135L188.389 22.3153L188.405 22.3165L188.488 21.32ZM191.944 72.776H190.944V73.776H191.944V72.776ZM198.472 77.096L199.46 76.9439L199.458 76.9324L199.456 76.921L198.472 77.096ZM197.32 85.736L198.23 86.1498L198.233 86.1433L198.236 86.1368L197.32 85.736ZM185.512 88.712L185.05 89.5992L185.057 89.6029L185.065 89.6064L185.512 88.712ZM182.248 86.12L183.089 85.5792L183.08 85.5648L183.07 85.5508L182.248 86.12ZM181.384 84.872L182.206 84.3028L181.537 83.336L180.69 84.1519L181.384 84.872ZM154.504 83.336L153.744 83.9859L154.504 83.336ZM154.792 46.568L155.526 47.2472L155.531 47.2418L154.792 46.568ZM174.952 40.616L174.742 41.5938L175.952 41.853V40.616H174.952ZM167.944 72.2L167.123 72.7711L167.129 72.7797L167.135 72.7882L167.944 72.2ZM174.952 72.68L175.638 73.407L175.952 73.111V72.68H174.952ZM174.952 56.36H175.952V55.7881L175.459 55.4981L174.952 56.36ZM175.952 22.376C175.952 22.6591 175.742 22.7165 175.921 22.6149C176.094 22.5161 176.441 22.3911 177.034 22.2784C178.203 22.0565 180.023 21.936 182.536 21.936V19.936C179.993 19.936 178.02 20.0555 176.661 20.3135C175.991 20.4409 175.389 20.6159 174.931 20.8771C174.477 21.1355 173.952 21.6129 173.952 22.376H175.952ZM182.536 21.936C184.216 21.936 186.161 22.0606 188.374 22.3135L188.601 20.3265C186.334 20.0674 184.311 19.936 182.536 19.936V21.936ZM188.405 22.3165C189.543 22.4114 190.342 22.5263 190.837 22.6501C191.093 22.7141 191.202 22.7647 191.224 22.7778C191.291 22.8168 190.944 22.6472 190.944 22.184H192.944C192.944 21.5288 192.453 21.1792 192.232 21.0502C191.966 20.8953 191.642 20.7899 191.322 20.7099C190.666 20.5457 189.736 20.4206 188.571 20.3235L188.405 22.3165ZM190.944 22.184V72.776H192.944V22.184H190.944ZM191.944 73.776H195.304V71.776H191.944V73.776ZM195.304 73.776C195.745 73.776 196.124 73.9498 196.489 74.4474C196.887 74.9896 197.243 75.8968 197.487 77.271L199.456 76.921C199.189 75.4152 198.761 74.1624 198.102 73.2646C197.411 72.3222 196.463 71.776 195.304 71.776V73.776ZM197.483 77.2481C197.6 78.006 197.664 79.0993 197.664 80.552H199.664C199.664 79.0607 199.6 77.85 199.46 76.9439L197.483 77.2481ZM197.664 80.552C197.664 81.7647 197.273 83.3476 196.404 85.3352L198.236 86.1368C199.158 84.0284 199.664 82.1553 199.664 80.552H197.664ZM196.409 85.3222C195.826 86.6049 195.099 87.5014 194.257 88.08C193.422 88.6545 192.409 88.96 191.176 88.96V90.96C192.758 90.96 194.178 90.5615 195.39 89.728C196.597 88.8987 197.533 87.6831 198.23 86.1498L196.409 85.3222ZM191.176 88.96C189.198 88.96 187.466 88.5713 185.959 87.8176L185.065 89.6064C186.885 90.5167 188.93 90.96 191.176 90.96V88.96ZM185.973 87.8248C184.433 87.0241 183.526 86.2596 183.089 85.5792L181.407 86.6608C182.121 87.7724 183.39 88.7359 185.05 89.5992L185.973 87.8248ZM183.07 85.5508L182.206 84.3028L180.562 85.4412L181.426 86.6892L183.07 85.5508ZM180.69 84.1519C177.373 87.348 173.214 88.96 168.136 88.96V90.96C173.682 90.96 178.354 89.18 182.078 85.5921L180.69 84.1519ZM168.136 88.96C163.146 88.96 158.87 86.9035 155.264 82.6861L153.744 83.9859C157.69 88.6005 162.502 90.96 168.136 90.96V88.96ZM155.264 82.6861C151.69 78.5067 149.84 72.6226 149.84 64.904H147.84C147.84 72.9294 149.765 79.3333 153.744 83.9859L155.264 82.6861ZM149.84 64.904C149.84 57.1283 151.782 51.2927 155.526 47.2472L154.058 45.8888C149.865 50.4193 147.84 56.8077 147.84 64.904H149.84ZM155.531 47.2418C159.307 43.1001 163.998 41.04 169.672 41.04V39.04C163.442 39.04 158.213 41.3319 154.053 45.8942L155.531 47.2418ZM169.672 41.04C171.325 41.04 173.015 41.2237 174.742 41.5938L175.161 39.6382C173.305 39.2403 171.474 39.04 169.672 39.04V41.04ZM175.952 40.616V22.376H173.952V40.616H175.952ZM171.784 54.4C170.733 54.4 169.765 54.6387 168.917 55.149C168.069 55.6583 167.395 56.4052 166.877 57.3391C165.858 59.1766 165.408 61.8044 165.408 65.096H167.408C167.408 61.9236 167.853 59.7034 168.626 58.3089C169.005 57.6268 169.45 57.1617 169.947 56.863C170.442 56.5653 171.043 56.4 171.784 56.4V54.4ZM165.408 65.096C165.408 68.4188 165.92 71.0424 167.123 72.7711L168.765 71.6289C167.919 70.4136 167.408 68.3012 167.408 65.096H165.408ZM167.135 72.7882C168.261 74.3363 169.645 75.312 171.304 75.312V73.312C170.53 73.312 169.675 72.8797 168.752 71.6118L167.135 72.7882ZM171.304 75.312C172.896 75.312 174.347 74.6265 175.638 73.407L174.265 71.953C173.252 72.9095 172.271 73.312 171.304 73.312V75.312ZM175.952 72.68V56.36H173.952V72.68H175.952ZM175.459 55.4981C174.253 54.7886 173.023 54.4 171.784 54.4V56.4C172.592 56.4 173.475 56.6514 174.445 57.2219L175.459 55.4981ZM209.073 83.336L208.329 84.0044L208.335 84.0103L209.073 83.336ZM209.073 46.664L208.334 45.9897L208.329 45.9956L209.073 46.664ZM241.425 46.664L240.681 47.3324L241.425 46.664ZM241.425 83.336L240.681 82.6676L241.425 83.336ZM209.817 82.6676C206.06 78.4868 204.121 72.6407 204.121 65H202.121C202.121 72.9753 204.15 79.3532 208.329 84.0044L209.817 82.6676ZM204.121 65C204.121 57.3593 206.06 51.5132 209.817 47.3324L208.329 45.9956C204.15 50.6468 202.121 57.0247 202.121 65H204.121ZM209.811 47.3383C213.628 43.1587 218.752 41.04 225.297 41.04V39.04C218.274 39.04 212.582 41.3373 208.335 45.9897L209.811 47.3383ZM225.297 41.04C231.842 41.04 236.931 43.1586 240.681 47.3324L242.169 45.9956C237.983 41.3374 232.32 39.04 225.297 39.04V41.04ZM240.681 47.3324C244.438 51.5132 246.377 57.3593 246.377 65H248.377C248.377 57.0247 246.348 50.6468 242.169 45.9956L240.681 47.3324ZM246.377 65C246.377 72.6407 244.438 78.4868 240.681 82.6676L242.169 84.0044C246.348 79.3532 248.377 72.9753 248.377 65H246.377ZM240.681 82.6676C236.931 86.8414 231.842 88.96 225.297 88.96V90.96C232.32 90.96 237.983 88.6626 242.169 84.0044L240.681 82.6676ZM225.297 88.96C218.752 88.96 213.628 86.8413 209.811 82.6617L208.335 84.0103C212.582 88.6627 218.274 90.96 225.297 90.96V88.96ZM225.297 55.072C223.173 55.072 221.497 55.9757 220.411 57.7601C219.374 59.4639 218.921 61.8911 218.921 64.904H220.921C220.921 62.0289 221.364 60.0401 222.119 58.7999C222.825 57.6403 223.837 57.072 225.297 57.072V55.072ZM218.921 64.904C218.921 67.9169 219.374 70.3441 220.411 72.0479C221.497 73.8323 223.173 74.736 225.297 74.736V72.736C223.837 72.736 222.825 72.1677 222.119 71.008C221.364 69.7679 220.921 67.7791 220.921 64.904H218.921ZM225.297 74.736C227.445 74.736 229.145 73.8395 230.251 72.0547C231.308 70.349 231.769 67.9188 231.769 64.904H229.769C229.769 67.7772 229.318 69.763 228.551 71.0013C227.833 72.1605 226.797 72.736 225.297 72.736V74.736ZM231.769 64.904C231.769 61.8892 231.308 59.459 230.251 57.7533C229.145 55.9685 227.445 55.072 225.297 55.072V57.072C226.797 57.072 227.833 57.6475 228.551 58.8067C229.318 60.045 229.769 62.0308 229.769 64.904H231.769ZM257.428 83.048L256.663 83.6918L256.668 83.6978L257.428 83.048ZM258.964 46.856L258.257 46.1489L258.964 46.856ZM295.06 45.032H296.06V44.5027L295.622 44.2051L295.06 45.032ZM289.3 103.688L288.755 102.85L288.745 102.856L289.3 103.688ZM258.388 105.224L257.465 105.609L257.642 106.033L258.079 106.175L258.388 105.224ZM259.444 92.072L259.841 91.1543L259.092 90.8302L258.625 91.4985L259.444 92.072ZM278.452 88.232H279.452V87.0288L278.269 87.2489L278.452 88.232ZM272.308 73.352L272.915 72.5576L272.907 72.551L272.898 72.5446L272.308 73.352ZM278.452 74.312L278.677 75.2864L279.452 75.1075V74.312H278.452ZM278.452 56.072H279.452V55.2912L278.694 55.1019L278.452 56.072ZM271.828 88C265.851 88 261.354 86.1015 258.188 82.3982L256.668 83.6978C260.286 87.9305 265.388 90 271.828 90V88ZM258.193 82.4042C255.011 78.6217 253.34 72.9704 253.34 65.288H251.34C251.34 73.2216 253.061 79.4102 256.663 83.6918L258.193 82.4042ZM253.34 65.288C253.34 57.6084 255.488 51.7457 259.671 47.5631L258.257 46.1489C253.607 50.7983 251.34 57.2236 251.34 65.288H253.34ZM259.671 47.5631C263.933 43.3011 269.583 41.136 276.724 41.136V39.136C269.145 39.136 262.955 41.4509 258.257 46.1489L259.671 47.5631ZM276.724 41.136C284.003 41.136 289.904 42.7354 294.497 45.8589L295.622 44.2051C290.615 40.8006 284.293 39.136 276.724 39.136V41.136ZM294.06 45.032V92.84H296.06V45.032H294.06ZM294.06 92.84C294.06 97.2514 292.299 100.545 288.755 102.85L289.845 104.526C293.98 101.839 296.06 97.9006 296.06 92.84H294.06ZM288.745 102.856C285.112 105.278 280.394 106.528 274.516 106.528V108.528C280.67 108.528 285.807 107.218 289.854 104.52L288.745 102.856ZM274.516 106.528C268.583 106.528 263.314 105.771 258.696 104.273L258.079 106.175C262.933 107.749 268.416 108.528 274.516 108.528V106.528ZM259.311 104.839C258.704 103.383 258.428 102.141 258.428 101.096H256.428C256.428 102.483 256.791 103.993 257.465 105.609L259.311 104.839ZM258.428 101.096C258.428 97.0695 259.096 94.3128 260.263 92.6455L258.625 91.4985C257.104 93.6712 256.428 96.9305 256.428 101.096H258.428ZM259.047 92.9897C263.465 94.9022 268.177 95.856 273.172 95.856V93.856C268.439 93.856 263.998 92.9538 259.841 91.1543L259.047 92.9897ZM273.172 95.856C275.02 95.856 276.585 95.5339 277.71 94.7357C278.899 93.8928 279.452 92.6257 279.452 91.112H277.452C277.452 92.0943 277.125 92.6992 276.553 93.1043C275.919 93.5541 274.844 93.856 273.172 93.856V95.856ZM279.452 91.112V88.232H277.452V91.112H279.452ZM278.269 87.2489C275.542 87.7561 273.403 88 271.828 88V90C273.581 90 275.857 89.7319 278.635 89.2151L278.269 87.2489ZM276.244 54.784C273.806 54.784 271.866 55.7268 270.586 57.6552C269.355 59.5114 268.812 62.1691 268.812 65.48H270.812C270.812 62.3269 271.34 60.1366 272.253 58.7608C273.118 57.4572 274.393 56.784 276.244 56.784V54.784ZM268.812 65.48C268.812 69.5498 269.632 72.6351 271.718 74.1594L272.898 72.5446C271.656 71.6369 270.812 69.4742 270.812 65.48H268.812ZM271.7 74.1464C272.917 75.0767 274.213 75.6 275.572 75.6V73.6C274.755 73.6 273.875 73.2913 272.915 72.5576L271.7 74.1464ZM275.572 75.6C276.716 75.6 277.754 75.4993 278.677 75.2864L278.227 73.3376C277.486 73.5087 276.604 73.6 275.572 73.6V75.6ZM279.452 74.312V56.072H277.452V74.312H279.452ZM278.694 55.1019C277.857 54.8924 277.039 54.784 276.244 54.784V56.784C276.857 56.784 277.511 56.8676 278.209 57.0421L278.694 55.1019ZM305.68 71.72L306.197 70.8644L305.634 70.5237L305.099 70.9063L305.68 71.72ZM315.856 70.664L316.275 69.756L316.254 69.7466L316.234 69.7381L315.856 70.664ZM309.04 43.784L309.625 44.5947L309.04 43.784ZM333.712 41.576L333.418 42.5318L333.423 42.5333L333.712 41.576ZM336.688 51.176L335.834 50.6545L335.829 50.6633L335.824 50.6721L336.688 51.176ZM333.904 54.92L333.416 55.7932L333.821 56.019L334.255 55.8563L333.904 54.92ZM323.344 56.456L322.675 57.1993L322.713 57.2341L322.756 57.2647L323.344 56.456ZM327.088 58.472L326.667 59.379L326.68 59.3853L326.694 59.3911L327.088 58.472ZM331.504 60.584L331.018 61.4582L331.028 61.4636L331.038 61.4689L331.504 60.584ZM335.536 63.272L336.156 62.4879L336.152 62.4845L335.536 63.272ZM335.056 85.256L335.735 85.9903L335.742 85.9834L335.056 85.256ZM307.312 87.656L307.694 86.732L307.312 87.656ZM302.992 75.656L302.08 75.2444L302.075 75.2568L302.07 75.2693L302.992 75.656ZM305.162 72.5756C310.373 75.7279 314.67 77.424 317.968 77.424V75.424C315.25 75.424 311.354 73.9841 306.197 70.8644L305.162 72.5756ZM317.968 77.424C319.014 77.424 319.977 77.2465 320.701 76.7392C321.491 76.1865 321.848 75.351 321.848 74.408H319.848C319.848 74.809 319.725 74.9815 319.554 75.1008C319.319 75.2655 318.842 75.424 317.968 75.424V77.424ZM321.848 74.408C321.848 73.8738 321.617 73.4079 321.334 73.0322C321.049 72.6535 320.657 72.295 320.2 71.952C319.284 71.2655 317.962 70.5349 316.275 69.756L315.437 71.572C317.077 72.3291 318.251 72.9905 319 73.552C319.374 73.833 319.607 74.0625 319.737 74.2358C319.87 74.4121 319.848 74.4622 319.848 74.408H321.848ZM316.234 69.7381C312.353 68.1549 309.52 66.0987 307.656 63.6088C305.8 61.1291 304.856 58.1535 304.856 54.632H302.856C302.856 58.5345 303.911 61.9429 306.055 64.8072C308.191 67.6613 311.358 69.9091 315.478 71.5899L316.234 69.7381ZM304.856 54.632C304.856 50.1758 306.461 46.8797 309.625 44.5947L308.454 42.9733C304.706 45.6803 302.856 49.6162 302.856 54.632H304.856ZM309.625 44.5947C312.89 42.237 316.806 41.04 321.424 41.04V39.04C316.441 39.04 312.102 40.339 308.454 42.9733L309.625 44.5947ZM321.424 41.04C326.224 41.04 330.214 41.5461 333.418 42.5318L334.006 40.6202C330.553 39.5578 326.351 39.04 321.424 39.04V41.04ZM333.423 42.5333C335.065 43.0292 336.201 43.5761 336.907 44.1357C337.593 44.6798 337.8 45.1686 337.8 45.608H339.8C339.8 44.3834 339.158 43.3682 338.149 42.5683C337.159 41.7839 335.75 41.1468 334.001 40.6187L333.423 42.5333ZM337.8 45.608C337.8 46.7291 337.22 48.387 335.834 50.6545L337.541 51.6974C338.971 49.357 339.8 47.3029 339.8 45.608H337.8ZM335.824 50.6721C335.16 51.8112 334.613 52.6627 334.181 53.2433C333.965 53.5343 333.791 53.7382 333.659 53.8709C333.507 54.0222 333.476 54.0123 333.553 53.9837L334.255 55.8563C334.587 55.7317 334.864 55.4938 335.073 55.2851C335.3 55.0578 335.539 54.7697 335.786 54.4367C336.283 53.7693 336.872 52.8448 337.552 51.6799L335.824 50.6721ZM334.391 54.0468C331.488 52.4263 328.344 51.616 324.976 51.616V53.616C328.008 53.616 330.816 54.3417 333.416 55.7932L334.391 54.0468ZM324.976 51.616C324.025 51.616 323.133 51.7777 322.456 52.2542C321.715 52.7759 321.384 53.5632 321.384 54.44H323.384C323.384 54.1008 323.485 53.9761 323.607 53.8898C323.794 53.7583 324.198 53.616 324.976 53.616V51.616ZM321.384 54.44C321.384 55.5275 321.852 56.4592 322.675 57.1993L324.013 55.7127C323.555 55.3008 323.384 54.8885 323.384 54.44H321.384ZM322.756 57.2647C323.545 57.8388 324.871 58.5452 326.667 59.379L327.509 57.565C325.721 56.7348 324.551 56.0972 323.932 55.6473L322.756 57.2647ZM326.694 59.3911C328.468 60.1514 329.906 60.8405 331.018 61.4582L331.989 59.7098C330.797 59.0475 329.292 58.3286 327.482 57.5529L326.694 59.3911ZM331.038 61.4689C332.186 62.0731 333.479 62.9322 334.919 64.0595L336.152 62.4845C334.648 61.3078 333.254 60.3749 331.969 59.6991L331.038 61.4689ZM334.915 64.056C337.748 66.2992 339.144 69.1789 339.144 72.776H341.144C341.144 68.5651 339.467 65.1088 336.156 62.488L334.915 64.056ZM339.144 72.776C339.144 77.6506 337.54 81.5371 334.37 84.5286L335.742 85.9834C339.355 82.5749 341.144 78.1414 341.144 72.776H339.144ZM334.377 84.5217C331.242 87.4203 326.411 88.96 319.696 88.96V90.96C326.676 90.96 332.086 89.3637 335.735 85.9903L334.377 84.5217ZM319.696 88.96C315.266 88.96 311.27 88.2117 307.694 86.732L306.929 88.58C310.778 90.1723 315.038 90.96 319.696 90.96V88.96ZM307.694 86.732C304.142 85.2622 302.744 83.4135 302.744 81.32H300.744C300.744 84.6025 303.057 86.9778 306.929 88.58L307.694 86.732ZM302.744 81.32C302.744 79.6846 303.123 77.9283 303.914 76.0427L302.07 75.2693C301.196 77.3517 300.744 79.3714 300.744 81.32H302.744ZM303.903 76.0676C304.785 74.1154 305.591 73.012 306.261 72.5337L305.099 70.9063C303.976 71.708 302.991 73.2286 302.08 75.2444L303.903 76.0676ZM351.01 83.336L350.267 84.0044L350.272 84.0103L351.01 83.336ZM351.01 46.664L350.272 45.9897L350.267 45.9956L351.01 46.664ZM383.362 46.664L382.619 47.3324L383.362 46.664ZM383.362 83.336L382.619 82.6676L383.362 83.336ZM351.754 82.6676C347.998 78.4868 346.059 72.6407 346.059 65H344.059C344.059 72.9753 346.087 79.3532 350.267 84.0044L351.754 82.6676ZM346.059 65C346.059 57.3593 347.998 51.5132 351.754 47.3324L350.267 45.9956C346.087 50.6468 344.059 57.0247 344.059 65H346.059ZM351.749 47.3383C355.565 43.1587 360.69 41.04 367.234 41.04V39.04C360.211 39.04 354.52 41.3373 350.272 45.9897L351.749 47.3383ZM367.234 41.04C373.78 41.04 378.868 43.1586 382.619 47.3324L384.106 45.9956C379.921 41.3374 374.258 39.04 367.234 39.04V41.04ZM382.619 47.3324C386.375 51.5132 388.315 57.3593 388.315 65H390.315C390.315 57.0247 388.286 50.6468 384.106 45.9956L382.619 47.3324ZM388.315 65C388.315 72.6407 386.375 78.4868 382.619 82.6676L384.106 84.0044C388.286 79.3532 390.315 72.9753 390.315 65H388.315ZM382.619 82.6676C378.868 86.8414 373.78 88.96 367.234 88.96V90.96C374.258 90.96 379.921 88.6626 384.106 84.0044L382.619 82.6676ZM367.234 88.96C360.69 88.96 355.565 86.8413 351.749 82.6617L350.272 84.0103C354.52 88.6627 360.211 90.96 367.234 90.96V88.96ZM367.234 55.072C365.11 55.072 363.434 55.9757 362.348 57.7601C361.311 59.4639 360.858 61.8911 360.858 64.904H362.858C362.858 62.0289 363.302 60.0401 364.057 58.7999C364.763 57.6403 365.775 57.072 367.234 57.072V55.072ZM360.858 64.904C360.858 67.9169 361.311 70.3441 362.348 72.0479C363.434 73.8323 365.11 74.736 367.234 74.736V72.736C365.775 72.736 364.763 72.1677 364.057 71.008C363.302 69.7679 362.858 67.7791 362.858 64.904H360.858ZM367.234 74.736C369.382 74.736 371.083 73.8395 372.189 72.0547C373.245 70.349 373.707 67.9188 373.707 64.904H371.707C371.707 67.7772 371.256 69.763 370.488 71.0013C369.77 72.1605 368.735 72.736 367.234 72.736V74.736ZM373.707 64.904C373.707 61.8892 373.245 59.459 372.189 57.7533C371.083 55.9685 369.382 55.072 367.234 55.072V57.072C368.735 57.072 369.77 57.6475 370.488 58.8067C371.256 60.045 371.707 62.0308 371.707 64.904H373.707ZM409.253 89.096L409.223 90.0956L409.238 90.096H409.253V89.096ZM399.653 56.936H400.653V55.936H399.653V56.936ZM393.893 52.712L392.905 52.8641L392.907 52.8775L392.909 52.8909L393.893 52.712ZM394.853 44.264L393.928 43.8854L393.924 43.8941L393.921 43.903L394.853 44.264ZM406.757 41.768L406.243 42.6255L406.757 41.768ZM410.597 45.224L409.723 45.7096L410.318 46.7804L411.248 45.9833L410.597 45.224ZM418.373 56.456L418.779 57.3698L418.8 57.3606L418.82 57.3504L418.373 56.456ZM416.165 57.608L415.541 56.8271L415.165 57.1274V57.608H416.165ZM415.165 88.424C415.165 87.9954 415.451 87.7846 415.495 87.7548C415.55 87.7172 415.558 87.7274 415.453 87.758C415.257 87.8152 414.9 87.8783 414.34 87.9327C413.238 88.0398 411.55 88.096 409.253 88.096V90.096C411.565 90.096 413.332 90.0402 414.534 89.9233C415.126 89.8657 415.633 89.7888 416.013 89.678C416.196 89.6246 416.421 89.5438 416.62 89.4082C416.808 89.2804 417.165 88.9646 417.165 88.424H415.165ZM409.283 88.0965C406.089 88.0006 403.722 87.8655 402.163 87.694C401.376 87.6074 400.837 87.5159 400.514 87.4286C400.344 87.3828 400.296 87.3541 400.311 87.3632C400.32 87.3686 400.391 87.4097 400.467 87.5033C400.551 87.6071 400.653 87.7916 400.653 88.04H398.653C398.653 88.6722 399.137 88.9924 399.295 89.0858C399.51 89.2129 399.762 89.2972 399.993 89.3594C400.469 89.4881 401.131 89.5926 401.944 89.682C403.585 89.8625 406.017 89.9994 409.223 90.0956L409.283 88.0965ZM400.653 88.04V56.936H398.653V88.04H400.653ZM399.653 55.936H397.157V57.936H399.653V55.936ZM397.157 55.936C396.659 55.936 396.254 55.7472 395.885 55.2686C395.48 54.7457 395.12 53.8691 394.877 52.5331L392.909 52.8909C393.178 54.3708 393.618 55.6063 394.302 56.4914C395.02 57.4208 395.992 57.936 397.157 57.936V55.936ZM394.882 52.5599C394.761 51.7777 394.701 50.9965 394.701 50.216H392.701C392.701 51.0995 392.769 51.9823 392.905 52.8641L394.882 52.5599ZM394.701 50.216C394.701 48.3641 395.059 46.5022 395.786 44.625L393.921 43.903C393.111 45.9938 392.701 48.0998 392.701 50.216H394.701ZM395.779 44.6426C396.31 43.3431 396.957 42.4494 397.679 41.8823C398.387 41.3264 399.221 41.04 400.229 41.04V39.04C398.805 39.04 397.528 39.4576 396.443 40.3097C395.373 41.1506 394.548 42.3689 393.928 43.8854L395.779 44.6426ZM400.229 41.04C402.496 41.04 404.491 41.5747 406.243 42.6255L407.272 40.9105C405.183 39.6573 402.826 39.04 400.229 39.04V41.04ZM406.243 42.6255C408.105 43.7427 409.209 44.7837 409.723 45.7096L411.471 44.7384C410.706 43.3603 409.25 42.0973 407.272 40.9105L406.243 42.6255ZM411.248 45.9833C415.089 42.6906 419.655 41.04 424.997 41.04V39.04C419.203 39.04 414.169 40.8454 409.946 44.4647L411.248 45.9833ZM424.997 41.04C430.399 41.04 434.088 42.4963 436.324 45.1906L437.863 43.9134C435.106 40.5917 430.731 39.04 424.997 39.04V41.04ZM436.324 45.1906C438.594 47.9266 439.837 52.5632 439.837 59.336H441.837C441.837 52.4128 440.584 47.1934 437.863 43.9134L436.324 45.1906ZM439.837 59.336V88.136H441.837V59.336H439.837ZM439.837 88.136C439.837 87.8984 439.954 87.7445 440.01 87.6906C440.049 87.6517 440.048 87.6703 439.935 87.7176C439.712 87.8111 439.298 87.9171 438.635 88.0096C437.33 88.1917 435.323 88.288 432.581 88.288V90.288C435.344 90.288 437.464 90.1923 438.911 89.9904C439.625 89.8909 440.243 89.7569 440.707 89.5624C440.939 89.4657 441.195 89.3283 441.407 89.1214C441.634 88.8995 441.837 88.5656 441.837 88.136H439.837ZM432.581 88.288C429.872 88.288 427.889 88.1917 426.601 88.0098C425.947 87.9175 425.54 87.8118 425.321 87.7192C425.211 87.6725 425.211 87.6547 425.252 87.6947C425.307 87.7498 425.421 87.9026 425.421 88.136H423.421C423.421 88.5614 423.62 88.8941 423.846 89.1173C424.056 89.3253 424.311 89.4635 424.541 89.5608C425.003 89.7562 425.616 89.8905 426.321 89.9902C427.753 90.1923 429.85 90.288 432.581 90.288V88.288ZM425.421 88.136V60.392H423.421V88.136H425.421ZM425.421 60.392C425.421 58.706 425.132 57.2632 424.4 56.2185C423.624 55.1089 422.452 54.592 421.061 54.592V56.592C421.91 56.592 422.419 56.8751 422.762 57.3655C423.151 57.9208 423.421 58.878 423.421 60.392H425.421ZM421.061 54.592C420.176 54.592 419.104 54.9727 417.926 55.5616L418.82 57.3504C419.947 56.7873 420.667 56.592 421.061 56.592V54.592ZM417.967 55.5422C416.838 56.0441 415.979 56.4766 415.541 56.8271L416.79 58.3889C416.992 58.2274 417.605 57.8919 418.779 57.3698L417.967 55.5422ZM415.165 57.608V88.424H417.165V57.608H415.165Z" fill="black"/>
</svg>
