<svg width="239" height="116" viewBox="0 0 239 116" fill="none" xmlns="http://www.w3.org/2000/svg">
<path d="M72 95.096C66.304 95.096 63.456 94.456 63.456 93.176L61.44 54.68L49.728 93.656C49.472 94.424 47.296 94.808 43.2 94.808C39.104 94.808 36.992 94.456 36.864 93.752L24.768 54.296L23.424 92.6C23.36 93.56 22.144 94.232 19.776 94.616C17.408 94.936 15.424 95.096 13.824 95.096C12.288 95.096 10.784 95 9.312 94.808C6.24 94.36 4.736 93.56 4.8 92.408L7.008 30.008C7.008 28.472 10.912 27.704 18.72 27.704C21.024 27.704 23.84 27.896 27.168 28.28C30.496 28.6 32.352 29.272 32.736 30.296L43.488 60.536L52.896 30.2C53.472 28.536 57.888 27.704 66.144 27.704C68.512 27.704 71.328 27.896 74.592 28.28C77.92 28.6 79.584 29.208 79.584 30.104L82.368 93.08C82.368 93.784 81.12 94.296 78.624 94.616C76.128 94.936 73.92 95.096 72 95.096ZM127.702 92.408C123.67 94.776 118.486 95.96 112.15 95.96C105.814 95.96 100.47 93.816 96.1178 89.528C91.7658 85.176 89.5898 79.192 89.5898 71.576C89.5898 63.896 91.6698 57.72 95.8298 53.048C100.054 48.376 105.366 46.04 111.766 46.04C118.166 46.04 123.094 47.672 126.55 50.936C130.07 54.2 131.83 58.168 131.83 62.84C131.83 73.208 125.878 78.392 113.974 78.392H107.35C107.35 80.312 107.862 81.656 108.886 82.424C109.974 83.128 111.542 83.48 113.59 83.48C118.07 83.48 122.326 82.456 126.358 80.408C126.422 80.344 126.71 80.792 127.222 81.752C128.758 84.504 129.526 86.84 129.526 88.76C129.526 90.616 128.918 91.832 127.702 92.408ZM115.702 64.664C115.702 61.976 114.39 60.632 111.766 60.632C110.55 60.632 109.494 61.016 108.598 61.784C107.766 62.488 107.35 63.544 107.35 64.952V67.928H112.534C114.646 67.928 115.702 66.84 115.702 64.664ZM158.165 94.424C158.165 94.872 155.861 95.096 151.253 95.096C144.853 94.904 141.653 94.552 141.653 94.04V62.936H139.157C137.493 62.936 136.405 61.528 135.893 58.712C135.765 57.88 135.701 57.048 135.701 56.216C135.701 54.232 136.085 52.248 136.853 50.264C138.005 47.448 139.797 46.04 142.229 46.04C144.661 46.04 146.837 46.616 148.757 47.768C150.677 48.92 151.957 50.072 152.597 51.224C156.629 47.768 161.429 46.04 166.997 46.04C172.565 46.04 176.597 47.544 179.093 50.552C181.589 53.56 182.837 58.488 182.837 65.336V94.136C182.837 94.904 180.085 95.288 174.581 95.288C169.141 95.288 166.421 94.904 166.421 94.136V66.392C166.421 63.192 165.301 61.592 163.061 61.592C162.421 61.592 161.525 61.88 160.373 62.456C159.221 62.968 158.485 63.352 158.165 63.608V94.424ZM190.496 47.576C190.496 46.872 193.248 46.52 198.752 46.52C204.256 46.52 207.008 46.872 207.008 47.576V75.608C207.008 78.808 208.032 80.408 210.08 80.408C211.616 80.408 213.344 79.736 215.264 78.392V47.576C215.264 46.936 217.984 46.616 223.424 46.616C228.864 46.616 231.584 46.936 231.584 47.576V79.064H234.08C236.256 79.064 237.344 81.144 237.344 85.304C237.344 87.416 236.896 89.56 236 91.736C234.72 94.552 232.992 95.96 230.816 95.96C226.528 95.96 223.36 94.2 221.312 90.68L221.216 90.776C217.312 94.232 213.12 95.96 208.64 95.96C202.432 95.96 197.856 94.424 194.912 91.352C191.968 88.216 190.496 83.064 190.496 75.896V47.576Z" fill="black"/>
<path d="M72 89.096C66.304 89.096 63.456 88.456 63.456 87.176L61.44 48.68L49.728 87.656C49.472 88.424 47.296 88.808 43.2 88.808C39.104 88.808 36.992 88.456 36.864 87.752L24.768 48.296L23.424 86.6C23.36 87.56 22.144 88.232 19.776 88.616C17.408 88.936 15.424 89.096 13.824 89.096C12.288 89.096 10.784 89 9.312 88.808C6.24 88.36 4.736 87.56 4.8 86.408L7.008 24.008C7.008 22.472 10.912 21.704 18.72 21.704C21.024 21.704 23.84 21.896 27.168 22.28C30.496 22.6 32.352 23.272 32.736 24.296L43.488 54.536L52.896 24.2C53.472 22.536 57.888 21.704 66.144 21.704C68.512 21.704 71.328 21.896 74.592 22.28C77.92 22.6 79.584 23.208 79.584 24.104L82.368 87.08C82.368 87.784 81.12 88.296 78.624 88.616C76.128 88.936 73.92 89.096 72 89.096ZM127.702 86.408C123.67 88.776 118.486 89.96 112.15 89.96C105.814 89.96 100.47 87.816 96.1178 83.528C91.7658 79.176 89.5898 73.192 89.5898 65.576C89.5898 57.896 91.6698 51.72 95.8298 47.048C100.054 42.376 105.366 40.04 111.766 40.04C118.166 40.04 123.094 41.672 126.55 44.936C130.07 48.2 131.83 52.168 131.83 56.84C131.83 67.208 125.878 72.392 113.974 72.392H107.35C107.35 74.312 107.862 75.656 108.886 76.424C109.974 77.128 111.542 77.48 113.59 77.48C118.07 77.48 122.326 76.456 126.358 74.408C126.422 74.344 126.71 74.792 127.222 75.752C128.758 78.504 129.526 80.84 129.526 82.76C129.526 84.616 128.918 85.832 127.702 86.408ZM115.702 58.664C115.702 55.976 114.39 54.632 111.766 54.632C110.55 54.632 109.494 55.016 108.598 55.784C107.766 56.488 107.35 57.544 107.35 58.952V61.928H112.534C114.646 61.928 115.702 60.84 115.702 58.664ZM158.165 88.424C158.165 88.872 155.861 89.096 151.253 89.096C144.853 88.904 141.653 88.552 141.653 88.04V56.936H139.157C137.493 56.936 136.405 55.528 135.893 52.712C135.765 51.88 135.701 51.048 135.701 50.216C135.701 48.232 136.085 46.248 136.853 44.264C138.005 41.448 139.797 40.04 142.229 40.04C144.661 40.04 146.837 40.616 148.757 41.768C150.677 42.92 151.957 44.072 152.597 45.224C156.629 41.768 161.429 40.04 166.997 40.04C172.565 40.04 176.597 41.544 179.093 44.552C181.589 47.56 182.837 52.488 182.837 59.336V88.136C182.837 88.904 180.085 89.288 174.581 89.288C169.141 89.288 166.421 88.904 166.421 88.136V60.392C166.421 57.192 165.301 55.592 163.061 55.592C162.421 55.592 161.525 55.88 160.373 56.456C159.221 56.968 158.485 57.352 158.165 57.608V88.424ZM190.496 41.576C190.496 40.872 193.248 40.52 198.752 40.52C204.256 40.52 207.008 40.872 207.008 41.576V69.608C207.008 72.808 208.032 74.408 210.08 74.408C211.616 74.408 213.344 73.736 215.264 72.392V41.576C215.264 40.936 217.984 40.616 223.424 40.616C228.864 40.616 231.584 40.936 231.584 41.576V73.064H234.08C236.256 73.064 237.344 75.144 237.344 79.304C237.344 81.416 236.896 83.56 236 85.736C234.72 88.552 232.992 89.96 230.816 89.96C226.528 89.96 223.36 88.2 221.312 84.68L221.216 84.776C217.312 88.232 213.12 89.96 208.64 89.96C202.432 89.96 197.856 88.424 194.912 85.352C191.968 82.216 190.496 77.064 190.496 69.896V41.576Z" fill="#F99C73"/>
<path d="M63.456 87.176H64.456V87.1498L64.4546 87.1237L63.456 87.176ZM61.44 48.68L62.4386 48.6277L60.4823 48.3922L61.44 48.68ZM49.728 87.656L50.6767 87.9722L50.6814 87.9581L50.6857 87.9438L49.728 87.656ZM36.864 87.752L37.8479 87.5731L37.8373 87.5152L37.8201 87.4589L36.864 87.752ZM24.768 48.296L25.7241 48.0029L23.7686 48.2609L24.768 48.296ZM23.424 86.6L24.4218 86.6665L24.4228 86.6508L24.4234 86.6351L23.424 86.6ZM19.776 88.616L19.9099 89.607L19.923 89.6052L19.9361 89.6031L19.776 88.616ZM9.312 88.808L9.16769 89.7975L9.17517 89.7986L9.18266 89.7996L9.312 88.808ZM4.8 86.408L5.79846 86.4635L5.79902 86.4534L5.79937 86.4434L4.8 86.408ZM7.008 24.008L8.00737 24.0434L8.008 24.0257V24.008H7.008ZM27.168 22.28L27.0534 23.2734L27.0628 23.2745L27.0723 23.2754L27.168 22.28ZM32.736 24.296L33.6782 23.961L33.6753 23.9529L33.6723 23.9449L32.736 24.296ZM43.488 54.536L42.5458 54.871L43.5528 57.7031L44.4431 54.8322L43.488 54.536ZM52.896 24.2L51.951 23.8729L51.9457 23.8883L51.9409 23.9038L52.896 24.2ZM74.592 22.28L74.4752 23.2731L74.4857 23.2744L74.4963 23.2754L74.592 22.28ZM79.584 24.104H78.584V24.1261L78.585 24.1482L79.584 24.104ZM82.368 87.08H83.368V87.0579L83.367 87.0358L82.368 87.08ZM78.624 88.616L78.7512 89.6079L78.624 88.616ZM72 88.096C69.1701 88.096 67.124 87.9353 65.8113 87.6403C65.1478 87.4912 64.7541 87.3251 64.549 87.1868C64.3648 87.0626 64.456 87.0551 64.456 87.176H62.456C62.456 87.9369 62.9032 88.4894 63.431 88.8452C63.9379 89.1869 64.6122 89.4208 65.3727 89.5917C66.908 89.9367 69.1339 90.096 72 90.096V88.096ZM64.4546 87.1237L62.4386 48.6277L60.4414 48.7323L62.4574 87.2283L64.4546 87.1237ZM60.4823 48.3922L48.7703 87.3682L50.6857 87.9438L62.3977 48.9678L60.4823 48.3922ZM48.7793 87.3398C48.8439 87.146 48.961 87.1553 48.7479 87.2563C48.5596 87.3455 48.2348 87.4462 47.7302 87.5352C46.7289 87.7119 45.23 87.808 43.2 87.808V89.808C45.266 89.808 46.9031 89.7121 48.0778 89.5048C48.6612 89.4018 49.1844 89.2625 49.6041 89.0637C49.999 88.8767 50.4841 88.55 50.6767 87.9722L48.7793 87.3398ZM43.2 87.808C41.167 87.808 39.6812 87.7197 38.7084 87.5576C38.2154 87.4754 37.9162 87.3839 37.7584 87.3095C37.5609 87.2164 37.7904 87.257 37.8479 87.5731L35.8801 87.9309C36.0016 88.599 36.5431 88.9476 36.9056 89.1185C37.3078 89.3081 37.8166 89.4366 38.3796 89.5304C39.5188 89.7203 41.1371 89.808 43.2 89.808V87.808ZM37.8201 87.4589L25.7241 48.0029L23.8119 48.5891L35.9079 88.0451L37.8201 87.4589ZM23.7686 48.2609L22.4246 86.5649L24.4234 86.6351L25.7674 48.3311L23.7686 48.2609ZM22.4262 86.5335C22.4259 86.538 22.4336 86.6982 21.9803 86.9488C21.5205 87.2029 20.7565 87.4439 19.6159 87.6289L19.9361 89.6031C21.1635 89.4041 22.1916 89.1171 22.9477 88.6992C23.7104 88.2778 24.3581 87.622 24.4218 86.6665L22.4262 86.5335ZM19.6421 87.625C17.2991 87.9416 15.3632 88.096 13.824 88.096V90.096C15.4848 90.096 17.5169 89.9304 19.9099 89.607L19.6421 87.625ZM13.824 88.096C12.3298 88.096 10.869 88.0026 9.44134 87.8164L9.18266 89.7996C10.699 89.9974 12.2462 90.096 13.824 90.096V88.096ZM9.45631 87.8185C7.9565 87.5997 6.9485 87.3077 6.34961 86.9891C5.75481 86.6727 5.79776 86.476 5.79846 86.4635L3.80154 86.3525C3.73824 87.492 4.50119 88.2713 5.41039 88.7549C6.3155 89.2363 7.5955 89.5683 9.16769 89.7975L9.45631 87.8185ZM5.79937 86.4434L8.00737 24.0434L6.00863 23.9726L3.80063 86.3726L5.79937 86.4434ZM8.008 24.008C8.008 24.1292 7.90699 24.0626 8.24825 23.8612C8.59162 23.6586 9.19342 23.4452 10.129 23.2612C11.9826 22.8966 14.8315 22.704 18.72 22.704V20.704C14.8005 20.704 11.7934 20.8954 9.74298 21.2988C8.72658 21.4987 7.86438 21.7654 7.23175 22.1388C6.59701 22.5134 6.008 23.1187 6.008 24.008H8.008ZM18.72 22.704C20.9728 22.704 23.748 22.892 27.0534 23.2734L27.2826 21.2866C23.932 20.9 21.0752 20.704 18.72 20.704V22.704ZM27.0723 23.2754C28.7019 23.4321 29.9023 23.6698 30.7156 23.9643C31.5754 24.2756 31.7685 24.564 31.7997 24.6471L33.6723 23.9449C33.3195 23.004 32.3926 22.4444 31.3964 22.0837C30.3537 21.7062 28.9621 21.4479 27.2637 21.2846L27.0723 23.2754ZM31.7938 24.631L42.5458 54.871L44.4302 54.201L33.6782 23.961L31.7938 24.631ZM44.4431 54.8322L53.8511 24.4962L51.9409 23.9038L42.5329 54.2398L44.4431 54.8322ZM53.841 24.5271C53.8612 24.4688 53.9733 24.2634 54.4952 24.0024C55.0017 23.7492 55.764 23.5106 56.8251 23.3107C58.9412 22.912 62.0358 22.704 66.144 22.704V20.704C61.9962 20.704 58.7548 20.912 56.4549 21.3453C55.308 21.5614 54.3423 21.8428 53.6008 22.2136C52.8747 22.5766 52.2188 23.0992 51.951 23.8729L53.841 24.5271ZM66.144 22.704C68.4613 22.704 71.2363 22.8921 74.4752 23.2731L74.7088 21.2868C71.4197 20.8999 68.5627 20.704 66.144 20.704V22.704ZM74.4963 23.2754C76.1364 23.4331 77.2826 23.6557 77.9928 23.9153C78.3501 24.0458 78.528 24.1614 78.6015 24.2279C78.6564 24.2775 78.584 24.231 78.584 24.104H80.584C80.584 23.529 80.3037 23.0705 79.9425 22.7441C79.6 22.4345 79.154 22.2102 78.6792 22.0367C77.7254 21.6882 76.3756 21.4469 74.6877 21.2846L74.4963 23.2754ZM78.585 24.1482L81.369 87.1242L83.367 87.0358L80.583 24.0598L78.585 24.1482ZM81.368 87.08C81.368 86.925 81.4478 86.8444 81.4361 86.8558C81.4081 86.8831 81.304 86.9636 81.0524 87.0668C80.5513 87.2724 79.7192 87.4674 78.4968 87.6241L78.7512 89.6079C80.0248 89.4446 81.0647 89.2236 81.8116 88.9172C82.184 88.7644 82.5479 88.5649 82.8319 88.2882C83.1322 87.9956 83.368 87.587 83.368 87.08H81.368ZM78.4968 87.6241C76.0309 87.9403 73.8668 88.096 72 88.096V90.096C73.9732 90.096 76.2251 89.9317 78.7512 89.6079L78.4968 87.6241ZM127.702 86.408L127.274 85.5043L127.234 85.5233L127.195 85.5457L127.702 86.408ZM96.1178 83.528L95.4106 84.2351L95.4159 84.2403L96.1178 83.528ZM95.8298 47.048L95.088 46.3773L95.0829 46.383L95.8298 47.048ZM126.55 44.936L125.863 45.663L125.87 45.6693L126.55 44.936ZM107.35 72.392V71.392H106.35V72.392H107.35ZM108.886 76.424L108.286 77.224L108.313 77.2448L108.342 77.2636L108.886 76.424ZM126.358 74.408L126.811 75.2996L126.952 75.2276L127.065 75.1151L126.358 74.408ZM127.222 75.752L126.339 76.2226L126.344 76.231L126.349 76.2394L127.222 75.752ZM108.598 55.784L109.244 56.5474L109.249 56.5433L108.598 55.784ZM107.35 61.928H106.35V62.928H107.35V61.928ZM127.195 85.5457C123.362 87.797 118.369 88.96 112.15 88.96V90.96C118.603 90.96 123.978 89.755 128.208 87.2703L127.195 85.5457ZM112.15 88.96C106.066 88.96 100.977 86.9119 96.8196 82.8157L95.4159 84.2403C99.9626 88.7201 105.562 90.96 112.15 90.96V88.96ZM96.8249 82.8209C92.7028 78.6989 90.5898 72.9935 90.5898 65.576H88.5898C88.5898 73.3905 90.8287 79.6531 95.4106 84.2351L96.8249 82.8209ZM90.5898 65.576C90.5898 58.0829 92.6147 52.1626 96.5766 47.713L95.0829 46.383C90.7248 51.2774 88.5898 57.7091 88.5898 65.576H90.5898ZM96.5715 47.7186C100.602 43.2602 105.643 41.04 111.766 41.04V39.04C105.088 39.04 99.505 41.4918 95.088 46.3774L96.5715 47.7186ZM111.766 41.04C118.001 41.04 122.649 42.6278 125.863 45.663L127.236 44.209C123.538 40.7162 118.331 39.04 111.766 39.04V41.04ZM125.87 45.6693C129.192 48.7499 130.83 52.4549 130.83 56.84H132.83C132.83 51.8811 130.947 47.6501 127.23 44.2027L125.87 45.6693ZM130.83 56.84C130.83 61.8311 129.404 65.4031 126.709 67.7499C123.988 70.1198 119.803 71.392 113.974 71.392V73.392C120.049 73.392 124.791 72.0722 128.023 69.2581C131.28 66.4209 132.83 62.2169 132.83 56.84H130.83ZM113.974 71.392H107.35V73.392H113.974V71.392ZM106.35 72.392C106.35 74.4636 106.903 76.187 108.286 77.224L109.486 75.624C108.82 75.125 108.35 74.1604 108.35 72.392H106.35ZM108.342 77.2636C109.661 78.1167 111.451 78.48 113.59 78.48V76.48C111.632 76.48 110.286 76.1393 109.429 75.5844L108.342 77.2636ZM113.59 78.48C118.229 78.48 122.64 77.4182 126.811 75.2996L125.905 73.5164C122.012 75.4939 117.911 76.48 113.59 76.48V78.48ZM127.065 75.1151C126.878 75.3021 126.627 75.402 126.372 75.402C126.154 75.402 125.995 75.3294 125.922 75.2904C125.842 75.2477 125.788 75.2038 125.763 75.1824C125.736 75.1584 125.718 75.1395 125.711 75.1317C125.694 75.1138 125.714 75.1339 125.781 75.2368C125.902 75.425 126.086 75.7473 126.339 76.2226L128.104 75.2814C127.846 74.7967 127.63 74.415 127.463 74.1552C127.385 74.034 127.289 73.8942 127.185 73.7803C127.143 73.7347 127.032 73.6157 126.863 73.5256C126.775 73.4786 126.602 73.402 126.372 73.402C126.106 73.402 125.846 73.5059 125.651 73.7009L127.065 75.1151ZM126.349 76.2394C127.849 78.9275 128.526 81.087 128.526 82.76H130.526C130.526 80.593 129.667 78.0806 128.095 75.2646L126.349 76.2394ZM128.526 82.76C128.526 84.4006 128.009 85.1561 127.274 85.5043L128.13 87.3117C129.827 86.5079 130.526 84.8314 130.526 82.76H128.526ZM116.702 58.664C116.702 57.1718 116.338 55.8679 115.433 54.9415C114.525 54.0106 113.238 53.632 111.766 53.632V55.632C112.917 55.632 113.599 55.9254 114.002 56.3385C114.41 56.7561 114.702 57.4682 114.702 58.664H116.702ZM111.766 53.632C110.319 53.632 109.03 54.0963 107.947 55.0247L109.249 56.5433C109.957 55.9357 110.781 55.632 111.766 55.632V53.632ZM107.952 55.0206C106.833 55.967 106.35 57.342 106.35 58.952H108.35C108.35 57.746 108.698 57.009 109.244 56.5474L107.952 55.0206ZM106.35 58.952V61.928H108.35V58.952H106.35ZM107.35 62.928H112.534V60.928H107.35V62.928ZM112.534 62.928C113.752 62.928 114.847 62.6126 115.627 61.8085C116.402 61.0099 116.702 59.8988 116.702 58.664H114.702C114.702 59.6052 114.473 60.1261 114.192 60.4155C113.917 60.6994 113.428 60.928 112.534 60.928V62.928ZM151.253 89.096L151.223 90.0956L151.238 90.096H151.253V89.096ZM141.653 56.936H142.653V55.936H141.653V56.936ZM135.893 52.712L134.905 52.8641L134.907 52.8775L134.909 52.8909L135.893 52.712ZM136.853 44.264L135.928 43.8854L135.924 43.8941L135.921 43.903L136.853 44.264ZM148.757 41.768L148.243 42.6255L148.757 41.768ZM152.597 45.224L151.723 45.7096L152.318 46.7804L153.248 45.9833L152.597 45.224ZM160.373 56.456L160.779 57.3698L160.8 57.3606L160.82 57.3504L160.373 56.456ZM158.165 57.608L157.541 56.8271L157.165 57.1274V57.608H158.165ZM157.165 88.424C157.165 87.9954 157.451 87.7846 157.495 87.7548C157.55 87.7172 157.558 87.7274 157.453 87.758C157.257 87.8152 156.9 87.8783 156.34 87.9327C155.238 88.0398 153.55 88.096 151.253 88.096V90.096C153.565 90.096 155.332 90.0402 156.534 89.9233C157.126 89.8657 157.633 89.7888 158.013 89.678C158.196 89.6246 158.421 89.5438 158.62 89.4082C158.808 89.2804 159.165 88.9646 159.165 88.424H157.165ZM151.283 88.0965C148.089 88.0006 145.722 87.8655 144.163 87.694C143.376 87.6074 142.837 87.5159 142.514 87.4286C142.344 87.3828 142.296 87.3541 142.311 87.3632C142.32 87.3686 142.391 87.4097 142.467 87.5033C142.551 87.6071 142.653 87.7916 142.653 88.04H140.653C140.653 88.6722 141.137 88.9924 141.295 89.0858C141.511 89.2129 141.762 89.2972 141.993 89.3594C142.469 89.4881 143.131 89.5926 143.944 89.682C145.585 89.8625 148.017 89.9994 151.223 90.0956L151.283 88.0965ZM142.653 88.04V56.936H140.653V88.04H142.653ZM141.653 55.936H139.157V57.936H141.653V55.936ZM139.157 55.936C138.659 55.936 138.254 55.7472 137.885 55.2686C137.48 54.7457 137.12 53.8691 136.877 52.5331L134.909 52.8909C135.178 54.3708 135.618 55.6063 136.302 56.4914C137.02 57.4208 137.992 57.936 139.157 57.936V55.936ZM136.882 52.5599C136.761 51.7777 136.701 50.9965 136.701 50.216H134.701C134.701 51.0995 134.769 51.9823 134.905 52.8641L136.882 52.5599ZM136.701 50.216C136.701 48.3641 137.059 46.5022 137.786 44.625L135.921 43.903C135.111 45.9938 134.701 48.0998 134.701 50.216H136.701ZM137.779 44.6426C138.31 43.3431 138.957 42.4494 139.679 41.8823C140.387 41.3264 141.221 41.04 142.229 41.04V39.04C140.805 39.04 139.528 39.4576 138.443 40.3097C137.373 41.1506 136.548 42.3689 135.928 43.8854L137.779 44.6426ZM142.229 41.04C144.496 41.04 146.491 41.5747 148.243 42.6255L149.272 40.9105C147.183 39.6573 144.826 39.04 142.229 39.04V41.04ZM148.243 42.6255C150.105 43.7427 151.209 44.7837 151.723 45.7096L153.471 44.7384C152.706 43.3603 151.25 42.0973 149.272 40.9105L148.243 42.6255ZM153.248 45.9833C157.089 42.6906 161.655 41.04 166.997 41.04V39.04C161.203 39.04 156.169 40.8454 151.946 44.4647L153.248 45.9833ZM166.997 41.04C172.399 41.04 176.088 42.4963 178.324 45.1906L179.863 43.9134C177.106 40.5917 172.731 39.04 166.997 39.04V41.04ZM178.324 45.1906C180.594 47.9266 181.837 52.5632 181.837 59.336H183.837C183.837 52.4128 182.584 47.1934 179.863 43.9134L178.324 45.1906ZM181.837 59.336V88.136H183.837V59.336H181.837ZM181.837 88.136C181.837 87.8984 181.954 87.7445 182.01 87.6906C182.049 87.6517 182.048 87.6703 181.935 87.7176C181.712 87.8111 181.298 87.9171 180.635 88.0096C179.33 88.1917 177.323 88.288 174.581 88.288V90.288C177.344 90.288 179.464 90.1923 180.911 89.9904C181.625 89.8909 182.243 89.7569 182.707 89.5624C182.939 89.4657 183.195 89.3283 183.407 89.1214C183.634 88.8995 183.837 88.5656 183.837 88.136H181.837ZM174.581 88.288C171.872 88.288 169.889 88.1917 168.601 88.0098C167.947 87.9175 167.54 87.8118 167.321 87.7192C167.211 87.6725 167.211 87.6547 167.252 87.6947C167.307 87.7498 167.421 87.9026 167.421 88.136H165.421C165.421 88.5614 165.62 88.8941 165.846 89.1173C166.056 89.3253 166.311 89.4635 166.541 89.5608C167.003 89.7562 167.616 89.8905 168.321 89.9902C169.753 90.1923 171.85 90.288 174.581 90.288V88.288ZM167.421 88.136V60.392H165.421V88.136H167.421ZM167.421 60.392C167.421 58.706 167.132 57.2632 166.4 56.2185C165.624 55.1089 164.452 54.592 163.061 54.592V56.592C163.91 56.592 164.419 56.8751 164.762 57.3655C165.151 57.9208 165.421 58.878 165.421 60.392H167.421ZM163.061 54.592C162.176 54.592 161.104 54.9727 159.926 55.5616L160.82 57.3504C161.947 56.7873 162.667 56.592 163.061 56.592V54.592ZM159.967 55.5422C158.838 56.0441 157.979 56.4766 157.541 56.8271L158.79 58.3889C158.992 58.2274 159.605 57.8919 160.779 57.3698L159.967 55.5422ZM157.165 57.608V88.424H159.165V57.608H157.165ZM215.264 72.392L215.838 73.2112L216.264 72.9127V72.392H215.264ZM231.584 73.064H230.584V74.064H231.584V73.064ZM236 85.736L236.911 86.1498L236.918 86.1334L236.925 86.1168L236 85.736ZM221.312 84.68L222.177 84.1771L221.523 83.0546L220.605 83.9729L221.312 84.68ZM221.216 84.776L221.879 85.5248L221.902 85.5046L221.923 85.4831L221.216 84.776ZM194.912 85.352L194.183 86.0365L194.19 86.0439L194.912 85.352ZM191.496 41.576C191.496 41.8543 191.348 42.0234 191.292 42.0735C191.25 42.1114 191.253 42.0929 191.37 42.0476C191.601 41.9592 192.022 41.861 192.687 41.7759C193.998 41.6083 196.01 41.52 198.752 41.52V39.52C195.991 39.52 193.875 39.6077 192.433 39.7921C191.723 39.883 191.112 40.0048 190.654 40.1804C190.428 40.2671 190.173 40.3916 189.958 40.5835C189.73 40.7876 189.496 41.1217 189.496 41.576H191.496ZM198.752 41.52C201.495 41.52 203.507 41.6083 204.817 41.7759C205.483 41.861 205.904 41.9592 206.134 42.0476C206.252 42.0929 206.255 42.1114 206.212 42.0735C206.156 42.0234 206.008 41.8543 206.008 41.576H208.008C208.008 41.1217 207.774 40.7876 207.546 40.5835C207.332 40.3916 207.077 40.2671 206.85 40.1804C206.393 40.0048 205.782 39.883 205.071 39.7921C203.63 39.6077 201.514 39.52 198.752 39.52V41.52ZM206.008 41.576V69.608H208.008V41.576H206.008ZM206.008 69.608C206.008 71.2825 206.27 72.7102 206.934 73.7471C207.646 74.8601 208.747 75.408 210.08 75.408V73.408C209.365 73.408 208.93 73.1559 208.619 72.6689C208.258 72.1059 208.008 71.1335 208.008 69.608H206.008ZM210.08 75.408C211.903 75.408 213.832 74.6149 215.838 73.2112L214.691 71.5728C212.856 72.8571 211.329 73.408 210.08 73.408V75.408ZM216.264 72.392V41.576H214.264V72.392H216.264ZM216.264 41.576C216.264 41.896 216.082 42.0784 216.027 42.1229C215.983 42.1595 215.986 42.1416 216.107 42.099C216.34 42.0167 216.762 41.9267 217.421 41.8491C218.721 41.6962 220.713 41.616 223.424 41.616V39.616C220.695 39.616 218.608 39.6958 217.187 39.8629C216.487 39.9453 215.888 40.0553 215.441 40.213C215.222 40.2904 214.97 40.4025 214.756 40.5791C214.532 40.7636 214.264 41.096 214.264 41.576H216.264ZM223.424 41.616C226.135 41.616 228.128 41.6962 229.427 41.8491C230.087 41.9267 230.508 42.0167 230.741 42.099C230.862 42.1416 230.865 42.1595 230.821 42.1229C230.767 42.0784 230.584 41.896 230.584 41.576H232.584C232.584 41.096 232.317 40.7636 232.092 40.5791C231.878 40.4025 231.626 40.2904 231.407 40.213C230.96 40.0553 230.362 39.9453 229.661 39.8629C228.241 39.6958 226.153 39.616 223.424 39.616V41.616ZM230.584 41.576V73.064H232.584V41.576H230.584ZM231.584 74.064H234.08V72.064H231.584V74.064ZM234.08 74.064C234.458 74.064 234.743 74.152 234.971 74.2973C235.203 74.4452 235.434 74.6895 235.642 75.0875C236.074 75.9129 236.344 77.2786 236.344 79.304H238.344C238.344 77.1694 238.071 75.4151 237.414 74.1605C237.079 73.5185 236.63 72.9827 236.046 72.6107C235.458 72.236 234.79 72.064 234.08 72.064V74.064ZM236.344 79.304C236.344 81.2712 235.928 83.2862 235.076 85.3552L236.925 86.1168C237.865 83.8338 238.344 81.5608 238.344 79.304H236.344ZM235.09 85.3222C233.893 87.956 232.439 88.96 230.816 88.96V90.96C233.546 90.96 235.548 89.148 236.911 86.1498L235.09 85.3222ZM230.816 88.96C226.861 88.96 224.034 87.3699 222.177 84.1771L220.448 85.1829C222.686 89.0301 226.195 90.96 230.816 90.96V88.96ZM220.605 83.9729L220.509 84.0689L221.923 85.4831L222.019 85.3871L220.605 83.9729ZM220.553 84.0272C216.8 87.3495 212.837 88.96 208.64 88.96V90.96C213.404 90.96 217.824 89.1145 221.879 85.5248L220.553 84.0272ZM208.64 88.96C202.579 88.96 198.317 87.4599 195.634 84.6601L194.19 86.0439C197.395 89.3881 202.285 90.96 208.64 90.96V88.96ZM195.641 84.6676C192.956 81.8071 191.496 76.9685 191.496 69.896H189.496C189.496 77.1595 190.981 82.6249 194.183 86.0364L195.641 84.6676ZM191.496 69.896V41.576H189.496V69.896H191.496Z" fill="black"/>
</svg>
